<svg width="364" height="364" viewBox="0 0 364 364" fill="none" xmlns="http://www.w3.org/2000/svg">
<path d="M301.01 44.7738C376.615 110.753 384.463 225.578 318.534 301.245C252.605 376.909 137.871 384.762 62.2627 318.783C-13.3423 252.803 -21.1893 137.978 44.7387 62.3139C110.668 -13.3531 225.403 -21.2062 301.01 44.7738Z" fill="#83C72D"/>
<path d="M290.515 53.6899C326.558 85.1429 298.335 154.223 234.944 226.978C171.552 299.732 105.704 338.618 69.6626 307.165C-3.0364 243.724 -14.9384 138.311 48.4536 65.5579C111.847 -7.20107 217.815 -9.75108 290.515 53.6899Z" fill="#83C72D"/>
<path opacity="0.5" d="M318.351 62.0798C308.518 116.131 280.705 173.978 236.204 225.053C189.438 278.726 132.759 315.144 78.1064 331.154" stroke="black" stroke-width="1.6211" stroke-miterlimit="10"/>
<path opacity="0.2" d="M247.985 235.711C289.552 188.004 318.37 133.292 330.994 78.8908C327.006 73.0838 322.639 67.4738 317.911 62.0808C308.078 116.132 280.274 173.977 235.771 225.053C189.005 278.726 132.328 315.128 77.6748 331.14C83.5898 335.256 89.6788 338.987 95.9168 342.313C150.589 323.201 204.276 285.876 247.985 235.711Z" fill="#83C72D"/>
<path d="M77.6748 331.14C132.328 315.128 189.005 278.726 235.771 225.053C280.274 173.978 308.078 116.132 317.911 62.0809C313.516 57.0649 308.808 52.2398 303.78 47.6418C296.267 104.444 267.873 163.535 223.557 214.394C177.076 267.74 118.823 305.071 61.6558 318.626C61.7148 318.679 61.7717 318.73 61.8307 318.783C66.9397 323.243 72.2348 327.352 77.6748 331.14Z" fill="url(#paint0_radial_1201_2)"/>
<path opacity="0.5" d="M95.917 342.312C150.589 323.201 204.276 285.876 247.985 235.711C289.552 188.004 318.37 133.292 330.994 78.8909" stroke="#D1D3D4" stroke-width="1.6211" stroke-miterlimit="10" stroke-linecap="round" stroke-linejoin="round"/>
<path opacity="0.5" d="M303.78 47.6409C296.267 104.443 267.873 163.534 223.557 214.393C177.076 267.74 118.823 305.071 61.6558 318.626" stroke="#D1D3D4" stroke-width="1.6211" stroke-miterlimit="10" stroke-linecap="round" stroke-linejoin="round"/>
<path d="M95.917 342.312C96.681 342.045 97.445 341.774 98.208 341.5" stroke="white" stroke-width="1.6211" stroke-linecap="round" stroke-linejoin="round"/>
<path d="M104.349 339.218C156.089 319.325 206.525 283.294 247.985 235.711C288.139 189.626 316.395 137.005 329.65 84.4409" stroke="white" stroke-width="1.6211" stroke-linecap="round" stroke-linejoin="round" stroke-dasharray="4.91 6.55"/>
<path d="M330.434 81.2559C330.624 80.4669 330.811 79.6789 330.994 78.8899" stroke="white" stroke-width="1.6211" stroke-linecap="round" stroke-linejoin="round"/>
<path d="M303.78 47.6409C303.674 48.4429 303.563 49.2449 303.449 50.0489" stroke="white" stroke-width="1.6211" stroke-linecap="round" stroke-linejoin="round"/>
<path d="M302.457 56.4089C293.309 110.491 265.597 166.146 223.557 214.393C178.561 266.035 122.534 302.668 67.1387 317.253" stroke="white" stroke-width="1.6211" stroke-linecap="round" stroke-linejoin="round" stroke-dasharray="4.83 6.44"/>
<path d="M64.0168 318.053C63.2298 318.248 62.4428 318.44 61.6558 318.626C61.7148 318.679 61.7717 318.73 61.8307 318.783" stroke="white" stroke-width="1.6211" stroke-linecap="round" stroke-linejoin="round"/>
<path d="M343.886 111.28C343.47 111.154 342.988 108.717 343.764 106.148C344.238 104.856 344.654 104.82 345.073 104.946C345.486 105.071 345.05 107.346 344.96 107.701C344.426 109.782 344.238 111.387 343.886 111.28Z" fill="white" stroke="white" stroke-width="0.4067" stroke-miterlimit="10"/>
<path d="M340.645 120.932C340.235 120.792 339.832 118.34 340.69 115.8C341.54 113.251 341.706 111.258 342.12 111.395C342.529 111.532 343.03 113.735 342.176 116.299C341.313 118.856 341.053 121.073 340.645 120.932Z" fill="white" stroke="white" stroke-width="0.4067" stroke-miterlimit="10"/>
<path d="M336.692 131.632C336.287 131.48 335.964 129.016 336.904 126.504C337.837 123.984 338.069 121.998 338.479 122.149C338.882 122.298 339.311 124.517 338.373 127.052C337.426 129.578 337.096 131.785 336.692 131.632Z" fill="white" stroke="white" stroke-width="0.4067" stroke-miterlimit="10"/>
<path d="M332.399 142.195C331.999 142.029 331.754 139.556 332.774 137.077C333.787 134.588 334.083 132.61 334.488 132.773C334.888 132.936 335.245 135.168 334.225 137.67C333.2 140.167 332.797 142.361 332.399 142.195Z" fill="white" stroke="white" stroke-width="0.4067" stroke-miterlimit="10"/>
<path d="M327.78 152.616C327.385 152.438 327.217 149.96 328.314 147.512C329.403 145.056 329.761 143.089 330.162 143.265C330.556 143.44 330.842 145.681 329.745 148.152C328.642 150.613 328.172 152.795 327.78 152.616Z" fill="white" stroke="white" stroke-width="0.4067" stroke-miterlimit="10"/>
<path d="M322.847 162.887C322.457 162.697 322.368 160.215 323.529 157.797C324.705 155.381 325.116 153.423 325.512 153.612C325.9 153.798 326.122 156.049 324.941 158.479C323.773 160.911 323.235 163.077 322.847 162.887Z" fill="white" stroke="white" stroke-width="0.4067" stroke-miterlimit="10"/>
<path d="M317.612 173.007C317.227 172.806 317.21 170.322 318.444 167.94C319.69 165.56 320.162 163.615 320.55 163.816C320.932 164.013 321.087 166.27 319.833 168.665C318.594 171.059 317.994 173.209 317.612 173.007Z" fill="white" stroke="white" stroke-width="0.4067" stroke-miterlimit="10"/>
<path d="M312.082 182.973C311.705 182.759 311.759 180.278 313.061 177.932C314.375 175.588 314.903 173.659 315.288 173.87C315.663 174.078 315.751 176.339 314.43 178.696C313.121 181.054 312.457 183.184 312.082 182.973Z" fill="white" stroke="white" stroke-width="0.4067" stroke-miterlimit="10"/>
<path d="M306.268 192.776C305.898 192.552 306.023 190.072 307.392 187.764C308.772 185.458 309.354 183.545 309.733 183.769C310.103 183.987 310.127 186.25 308.739 188.568C307.362 190.888 306.639 192.999 306.268 192.776Z" fill="white" stroke="white" stroke-width="0.4067" stroke-miterlimit="10"/>
<path d="M300.184 202.413C299.818 202.18 300.013 199.705 301.445 197.436C302.89 195.17 303.526 193.273 303.898 193.507C304.262 193.736 304.221 195.998 302.77 198.276C301.328 200.557 300.546 202.647 300.184 202.413Z" fill="white" stroke="white" stroke-width="0.4067" stroke-miterlimit="10"/>
<path d="M293.834 211.881C293.476 211.637 293.738 209.168 295.231 206.94C296.738 204.714 297.427 202.836 297.792 203.081C298.148 203.32 298.047 205.58 296.532 207.817C295.03 210.056 294.191 212.124 293.834 211.881Z" fill="white" stroke="white" stroke-width="0.4067" stroke-miterlimit="10"/>
<path d="M287.231 221.172C286.879 220.919 287.208 218.458 288.761 216.271C290.327 214.087 291.067 212.229 291.424 212.483C291.776 212.732 291.612 214.989 290.038 217.183C288.475 219.381 287.581 221.424 287.231 221.172Z" fill="white" stroke="white" stroke-width="0.4067" stroke-miterlimit="10"/>
<path d="M280.38 230.283C280.035 230.02 280.429 227.569 282.042 225.425C283.665 223.283 284.455 221.446 284.805 221.709C285.15 221.968 284.925 224.218 283.292 226.37C281.671 228.525 280.724 230.547 280.38 230.283Z" fill="white" stroke="white" stroke-width="0.4067" stroke-miterlimit="10"/>
<path d="M273.292 239.211C272.955 238.939 273.412 236.5 275.08 234.398C276.761 232.299 277.598 230.484 277.941 230.756C278.278 231.023 277.995 233.268 276.306 235.376C274.629 237.488 273.627 239.482 273.292 239.211Z" fill="white" stroke="white" stroke-width="0.4067" stroke-miterlimit="10"/>
<path d="M265.975 247.948C265.645 247.668 266.165 245.24 267.889 243.183C269.621 241.13 270.506 239.335 270.843 239.618C271.172 239.893 270.83 242.13 269.088 244.193C267.355 246.261 266.303 248.227 265.975 247.948Z" fill="white" stroke="white" stroke-width="0.4067" stroke-miterlimit="10"/>
<path d="M258.433 256.491C258.108 256.201 258.696 253.789 260.471 251.778C262.257 249.771 263.19 248.001 263.517 248.291C263.84 248.576 263.44 250.803 261.644 252.82C259.859 254.841 258.754 256.779 258.433 256.491Z" fill="white" stroke="white" stroke-width="0.4067" stroke-miterlimit="10"/>
<path d="M250.657 264.826C250.342 264.528 250.992 262.134 252.823 260.172C254.664 258.215 255.643 256.471 255.963 256.769C256.278 257.064 255.817 259.278 253.968 261.245C252.126 263.216 250.969 265.124 250.657 264.826Z" fill="white" stroke="white" stroke-width="0.4067" stroke-miterlimit="10"/>
<path d="M242.659 272.949C242.351 272.643 243.067 270.266 244.95 268.355C246.843 266.448 247.868 264.731 248.181 265.039C248.489 265.34 247.967 267.543 246.064 269.459C244.171 271.38 242.963 273.255 242.659 272.949Z" fill="white" stroke="white" stroke-width="0.4067" stroke-miterlimit="10"/>
<path d="M234.445 280.853C234.146 280.54 234.926 278.182 236.859 276.323C238.803 274.469 239.875 272.78 240.178 273.095C240.478 273.404 239.897 275.59 237.943 277.454C235.999 279.325 234.741 281.168 234.445 280.853Z" fill="white" stroke="white" stroke-width="0.4067" stroke-miterlimit="10"/>
<path d="M226.02 288.533C225.73 288.21 226.574 285.876 228.555 284.069C230.549 282.266 231.666 280.608 231.96 280.931C232.251 281.249 231.612 283.419 229.608 285.231C227.615 287.046 226.308 288.855 226.02 288.533Z" fill="white" stroke="white" stroke-width="0.4067" stroke-miterlimit="10"/>
<path d="M217.39 295.98C217.109 295.651 218.016 293.338 220.046 291.586C222.087 289.839 223.248 288.211 223.535 288.542C223.816 288.868 223.119 291.021 221.067 292.775C219.025 294.537 217.67 296.309 217.39 295.98Z" fill="white" stroke="white" stroke-width="0.4067" stroke-miterlimit="10"/>
<path d="M208.56 303.189C208.288 302.852 209.256 300.565 211.335 298.87C213.423 297.179 214.629 295.584 214.905 295.923C215.177 296.256 214.423 298.39 212.323 300.087C210.235 301.793 208.831 303.525 208.56 303.189Z" fill="white" stroke="white" stroke-width="0.4067" stroke-miterlimit="10"/>
<path d="M199.534 310.15C199.271 309.804 200.303 307.547 202.429 305.91C204.562 304.279 205.812 302.716 206.079 303.062C206.342 303.403 205.528 305.514 203.383 307.155C201.246 308.801 199.794 310.495 199.534 310.15Z" fill="white" stroke="white" stroke-width="0.4067" stroke-miterlimit="10"/>
<path d="M190.316 316.855C190.062 316.503 191.158 314.275 193.327 312.698C195.507 311.129 196.8 309.601 197.057 309.955C197.31 310.304 196.437 312.391 194.246 313.97C192.064 315.556 190.566 317.207 190.316 316.855Z" fill="white" stroke="white" stroke-width="0.4067" stroke-miterlimit="10"/>
<path d="M180.908 323.295C180.665 322.936 181.825 320.74 184.037 319.227C186.261 317.719 187.597 316.23 187.843 316.591C188.087 316.946 187.156 319.006 184.919 320.522C182.695 322.046 181.149 323.653 180.908 323.295Z" fill="white" stroke="white" stroke-width="0.4067" stroke-miterlimit="10"/>
<path d="M171.316 329.456C171.084 329.088 172.308 326.93 174.564 325.48C176.831 324.039 178.209 322.588 178.446 322.958C178.679 323.32 177.688 325.354 175.408 326.803C173.139 328.26 171.546 329.82 171.316 329.456Z" fill="white" stroke="white" stroke-width="0.4067" stroke-miterlimit="10"/>
<path d="M161.543 335.325C161.322 334.951 162.611 332.831 164.91 331.45C167.219 330.078 168.639 328.67 168.866 329.046C169.087 329.415 168.036 331.416 165.714 332.798C163.401 334.184 161.762 335.697 161.543 335.325Z" fill="white" stroke="white" stroke-width="0.4067" stroke-miterlimit="10"/>
<path d="M151.592 340.889C151.384 340.511 152.737 338.426 155.082 337.127C157.426 335.817 158.893 334.459 159.106 334.841C159.317 335.218 158.202 337.182 155.844 338.499C153.484 339.806 151.8 341.268 151.592 340.889Z" fill="white" stroke="white" stroke-width="0.4067" stroke-miterlimit="10"/>
<path d="M141.468 346.133C141.272 345.744 142.692 343.708 145.077 342.486C147.462 341.252 148.97 339.941 149.172 340.329C149.371 340.713 148.194 342.64 145.795 343.882C143.394 345.111 141.663 346.517 141.468 346.133Z" fill="white" stroke="white" stroke-width="0.4067" stroke-miterlimit="10"/>
<path d="M131.173 351.034C130.989 350.641 132.478 348.652 134.903 347.512C137.327 346.358 138.879 345.097 139.067 345.491C139.253 345.881 138.013 347.768 135.574 348.929C133.133 350.079 131.355 351.426 131.173 351.034Z" fill="white" stroke="white" stroke-width="0.4067" stroke-miterlimit="10"/>
<path d="M125.588 351.74C128.052 350.667 129.646 349.462 129.82 349.862C129.992 350.258 128.686 352.101 126.213 353.18C123.741 354.254 123.127 352.811 125.588 351.74Z" fill="white" stroke="white" stroke-width="0.4067" stroke-miterlimit="10"/>
<path d="M338.523 101.079C338.104 100.964 337.559 98.5399 338.27 95.9519C338.485 95.2189 339.043 94.6019 339.464 94.7179C339.881 94.8319 340.109 94.7719 339.782 96.3669C339.068 98.9679 338.938 101.194 338.523 101.079Z" fill="white" stroke="white" stroke-width="0.4067" stroke-miterlimit="10"/>
<path d="M335.538 110.743C335.125 110.613 334.663 108.172 335.459 105.612C336.244 103.043 336.361 101.046 336.778 101.173C337.19 101.299 337.747 103.488 336.956 106.073C336.157 108.652 335.949 110.873 335.538 110.743Z" fill="white" stroke="white" stroke-width="0.4067" stroke-miterlimit="10"/>
<path d="M331.866 121.451C331.458 121.306 331.078 118.851 331.959 116.318C332.831 113.778 333.017 111.787 333.43 111.927C333.838 112.067 334.32 114.275 333.441 116.831C332.552 119.381 332.272 121.594 331.866 121.451Z" fill="white" stroke="white" stroke-width="0.4067" stroke-miterlimit="10"/>
<path d="M327.839 132.029C327.436 131.873 327.137 129.406 328.101 126.903C329.058 124.393 329.308 122.409 329.716 122.563C330.119 122.716 330.528 124.939 329.565 127.464C328.594 129.983 328.242 132.187 327.839 132.029Z" fill="white" stroke="white" stroke-width="0.4067" stroke-miterlimit="10"/>
<path d="M323.475 142.47C323.077 142.299 322.858 139.824 323.903 137.355C324.939 134.876 325.254 132.902 325.658 133.07C326.054 133.235 326.39 135.47 325.347 137.964C324.296 140.448 323.873 142.64 323.475 142.47Z" fill="white" stroke="white" stroke-width="0.4067" stroke-miterlimit="10"/>
<path d="M318.786 152.763C318.394 152.581 318.252 150.101 319.374 147.664C320.488 145.22 320.864 143.256 321.264 143.436C321.656 143.614 321.92 145.858 320.798 148.318C319.669 150.768 319.177 152.946 318.786 152.763Z" fill="white" stroke="white" stroke-width="0.4067" stroke-miterlimit="10"/>
<path d="M313.786 162.903C313.398 162.708 313.335 160.226 314.521 157.82C315.721 155.417 316.153 153.463 316.547 153.656C316.931 153.846 317.131 156.099 315.925 158.518C314.732 160.937 314.17 163.097 313.786 162.903Z" fill="white" stroke="white" stroke-width="0.4067" stroke-miterlimit="10"/>
<path d="M308.481 172.889C308.099 172.683 308.109 170.201 309.369 167.831C310.64 165.464 311.132 163.524 311.518 163.728C311.898 163.93 312.029 166.189 310.75 168.57C309.484 170.953 308.861 173.094 308.481 172.889Z" fill="white" stroke="white" stroke-width="0.4067" stroke-miterlimit="10"/>
<path d="M302.883 182.715C302.508 182.498 302.59 180.017 303.918 177.687C305.259 175.357 305.808 173.434 306.189 173.65C306.562 173.862 306.627 176.125 305.279 178.466C303.944 180.809 303.257 182.932 302.883 182.715Z" fill="white" stroke="white" stroke-width="0.4067" stroke-miterlimit="10"/>
<path d="M297.006 192.377C296.637 192.148 296.79 189.672 298.185 187.38C299.592 185.09 300.197 183.184 300.57 183.409C300.939 183.635 300.937 185.896 299.522 188.199C298.121 190.503 297.372 192.604 297.006 192.377Z" fill="white" stroke="white" stroke-width="0.4067" stroke-miterlimit="10"/>
<path d="M290.857 201.87C290.495 201.632 290.717 199.16 292.174 196.908C293.647 194.659 294.305 192.769 294.672 193.007C295.032 193.241 294.968 195.503 293.489 197.765C292.023 200.028 291.215 202.107 290.857 201.87Z" fill="white" stroke="white" stroke-width="0.4067" stroke-miterlimit="10"/>
<path d="M284.444 211.19C284.089 210.941 284.38 208.475 285.9 206.266C287.434 204.058 288.144 202.188 288.505 202.436C288.859 202.68 288.731 204.939 287.19 207.158C285.662 209.38 284.797 211.437 284.444 211.19Z" fill="white" stroke="white" stroke-width="0.4067" stroke-miterlimit="10"/>
<path d="M277.781 220.33C277.432 220.073 277.79 217.615 279.371 215.448C280.963 213.284 281.725 211.433 282.079 211.692C282.427 211.944 282.235 214.199 280.636 216.375C279.046 218.555 278.127 220.588 277.781 220.33Z" fill="white" stroke="white" stroke-width="0.4067" stroke-miterlimit="10"/>
<path d="M270.874 229.289C270.532 229.022 270.954 226.576 272.593 224.45C274.243 222.33 275.053 220.501 275.402 220.768C275.742 221.031 275.491 223.28 273.834 225.412C272.186 227.547 271.213 229.555 270.874 229.289Z" fill="white" stroke="white" stroke-width="0.4067" stroke-miterlimit="10"/>
<path d="M263.733 238.062C263.399 237.786 263.884 235.351 265.58 233.272C267.284 231.194 268.143 229.388 268.483 229.664C268.817 229.935 268.507 232.176 266.794 234.265C265.09 236.355 264.065 238.337 263.733 238.062Z" fill="white" stroke="white" stroke-width="0.4067" stroke-miterlimit="10"/>
<path d="M256.365 246.646C256.037 246.361 256.587 243.941 258.34 241.91C260.092 239.871 261 238.092 261.332 238.377C261.658 238.657 261.288 240.887 259.526 242.935C257.765 244.975 256.689 246.931 256.365 246.646Z" fill="white" stroke="white" stroke-width="0.4067" stroke-miterlimit="10"/>
<path d="M248.767 255.032C248.447 254.739 249.064 252.334 250.865 250.346C252.678 248.362 253.63 246.604 253.956 246.897C254.274 247.186 253.847 249.407 252.024 251.402C250.213 253.401 249.084 255.324 248.767 255.032Z" fill="white" stroke="white" stroke-width="0.4067" stroke-miterlimit="10"/>
<path d="M240.947 263.208C240.635 262.905 241.315 260.519 243.171 258.58C245.036 256.646 246.036 254.914 246.353 255.217C246.666 255.515 246.176 257.724 244.301 259.667C242.436 261.616 241.255 263.509 240.947 263.208Z" fill="white" stroke="white" stroke-width="0.4067" stroke-miterlimit="10"/>
<path d="M232.909 271.168C232.606 270.857 233.352 268.489 235.258 266.602C237.176 264.719 238.223 263.015 238.531 263.328C238.834 263.634 238.286 265.828 236.358 267.72C234.442 269.616 233.21 271.476 232.909 271.168Z" fill="white" stroke="white" stroke-width="0.4067" stroke-miterlimit="10"/>
<path d="M224.656 278.904C224.362 278.586 225.172 276.239 227.13 274.405C229.097 272.576 230.191 270.9 230.489 271.219C230.784 271.532 230.177 273.712 228.199 275.551C226.23 277.396 224.949 279.223 224.656 278.904Z" fill="white" stroke="white" stroke-width="0.4067" stroke-miterlimit="10"/>
<path d="M216.193 286.413C215.909 286.087 216.782 283.764 218.789 281.983C220.807 280.208 221.944 278.563 222.235 278.891C222.522 279.212 221.854 281.374 219.827 283.158C217.809 284.948 216.478 286.737 216.193 286.413Z" fill="white" stroke="white" stroke-width="0.4067" stroke-miterlimit="10"/>
<path d="M207.526 293.682C207.251 293.347 208.189 291.049 210.243 289.327C212.31 287.608 213.494 285.996 213.775 286.332C214.052 286.661 213.326 288.805 211.248 290.53C209.183 292.264 207.801 294.015 207.526 293.682Z" fill="white" stroke="white" stroke-width="0.4067" stroke-miterlimit="10"/>
<path d="M198.659 300.706C198.392 300.364 199.396 298.095 201.498 296.429C203.612 294.771 204.839 293.192 205.111 293.535C205.379 293.872 204.592 295.993 202.468 297.66C200.354 299.335 198.923 301.047 198.659 300.706Z" fill="white" stroke="white" stroke-width="0.4067" stroke-miterlimit="10"/>
<path d="M189.594 307.474C189.336 307.124 190.405 304.883 192.554 303.279C194.714 301.681 195.986 300.139 196.248 300.491C196.505 300.834 195.661 302.932 193.489 304.539C191.329 306.152 189.849 307.822 189.594 307.474Z" fill="white" stroke="white" stroke-width="0.4067" stroke-miterlimit="10"/>
<path d="M180.337 313.976C180.09 313.62 181.223 311.411 183.418 309.87C185.622 308.337 186.94 306.83 187.192 307.188C187.439 307.54 186.534 309.613 184.315 311.155C182.109 312.706 180.582 314.333 180.337 313.976Z" fill="white" stroke="white" stroke-width="0.4067" stroke-miterlimit="10"/>
<path d="M170.89 320.202C170.654 319.838 171.852 317.663 174.092 316.188C176.342 314.72 177.701 313.253 177.944 313.62C178.181 313.979 177.215 316.024 174.952 317.5C172.699 318.984 171.124 320.563 170.89 320.202Z" fill="white" stroke="white" stroke-width="0.4067" stroke-miterlimit="10"/>
<path d="M161.258 326.136C161.032 325.764 162.298 323.629 164.581 322.223C166.874 320.825 168.278 319.401 168.509 319.773C168.735 320.139 167.707 322.155 165.4 323.562C163.103 324.975 161.481 326.505 161.258 326.136Z" fill="white" stroke="white" stroke-width="0.4067" stroke-miterlimit="10"/>
<path d="M151.445 331.766C151.232 331.389 152.562 329.29 154.892 327.966C157.222 326.629 158.672 325.255 158.891 325.633C159.105 326.007 158.014 327.986 155.67 329.328C153.325 330.663 151.657 332.143 151.445 331.766Z" fill="white" stroke="white" stroke-width="0.4067" stroke-miterlimit="10"/>
<path d="M141.454 337.078C141.254 336.695 142.651 334.64 145.023 333.392C147.394 332.131 148.887 330.804 149.093 331.19C149.296 331.571 148.141 333.511 145.755 334.78C143.369 336.036 141.653 337.462 141.454 337.078Z" fill="white" stroke="white" stroke-width="0.4067" stroke-miterlimit="10"/>
<path d="M131.294 342.056C131.106 341.665 132.572 339.66 134.984 338.492C137.395 337.312 138.933 336.034 139.126 336.427C139.316 336.814 138.098 338.715 135.67 339.904C133.242 341.079 131.479 342.445 131.294 342.056Z" fill="white" stroke="white" stroke-width="0.4067" stroke-miterlimit="10"/>
<path d="M120.965 346.679C120.791 346.282 122.326 344.329 124.777 343.245C127.228 342.149 128.808 340.924 128.987 341.322C129.163 341.717 127.881 343.576 125.414 344.678C122.946 345.769 121.138 347.075 120.965 346.679Z" fill="white" stroke="white" stroke-width="0.4067" stroke-miterlimit="10"/>
<path d="M115.432 347.221C117.921 346.207 119.544 345.04 119.709 345.446C119.871 345.845 118.521 347.658 116.021 348.675C112.574 350.073 111.997 348.614 115.432 347.221Z" fill="white" stroke="white" stroke-width="0.4067" stroke-miterlimit="10"/>
<path d="M95.9165 342.312C96.6805 342.045 97.4445 341.774 98.2075 341.5" stroke="white" stroke-width="1.6211" stroke-linecap="round" stroke-linejoin="round"/>
<path d="M104.349 339.218C156.089 319.325 206.525 283.294 247.985 235.711C288.139 189.626 316.395 137.005 329.65 84.4409" stroke="white" stroke-width="1.6211" stroke-linecap="round" stroke-linejoin="round" stroke-dasharray="4.91 6.55"/>
<path d="M330.434 81.2559C330.624 80.4669 330.811 79.6789 330.994 78.8899" stroke="white" stroke-width="1.6211" stroke-linecap="round" stroke-linejoin="round"/>
<path d="M60.2715 298.996C60.3725 299.412 58.5515 301.099 55.9295 301.737C53.3045 302.372 50.1905 303.808 50.0895 303.387C49.9875 302.964 52.9505 300.843 55.5605 300.211C58.1635 299.578 60.1675 298.571 60.2715 298.996Z" fill="white" stroke="white" stroke-width="0.4067" stroke-miterlimit="10"/>
<path d="M69.8265 296.184C69.9505 296.596 68.2186 298.372 65.6266 299.141C63.0276 299.893 61.2865 300.848 61.1685 300.432C61.0485 300.013 62.6136 298.38 65.1866 297.635C67.7526 296.875 69.6995 295.768 69.8265 296.184Z" fill="white" stroke="white" stroke-width="0.4067" stroke-miterlimit="10"/>
<path d="M80.3695 292.562C80.5135 292.967 78.8685 294.826 76.3185 295.72C73.7605 296.599 72.0685 297.639 71.9295 297.229C71.7895 296.818 73.2695 295.109 75.8055 294.238C78.3315 293.352 80.2225 292.152 80.3695 292.562Z" fill="white" stroke="white" stroke-width="0.4067" stroke-miterlimit="10"/>
<path d="M90.7375 288.456C90.8995 288.855 89.3415 290.785 86.8345 291.794C84.3205 292.791 82.6785 293.91 82.5205 293.507C82.3615 293.101 83.7615 291.325 86.2525 290.337C88.7385 289.337 90.5735 288.054 90.7375 288.456Z" fill="white" stroke="white" stroke-width="0.4067" stroke-miterlimit="10"/>
<path d="M100.921 283.899C101.1 284.291 99.6243 286.286 97.1653 287.402C94.6973 288.506 93.1063 289.697 92.9303 289.301C92.7533 288.904 94.0733 287.067 96.5213 285.972C98.9603 284.865 100.739 283.505 100.921 283.899Z" fill="white" stroke="white" stroke-width="0.4067" stroke-miterlimit="10"/>
<path d="M110.912 278.927C111.107 279.31 109.713 281.365 107.302 282.579C104.883 283.784 103.343 285.041 103.15 284.651C102.957 284.261 104.199 282.373 106.6 281.175C108.992 279.971 110.715 278.538 110.912 278.927Z" fill="white" stroke="white" stroke-width="0.4067" stroke-miterlimit="10"/>
<path d="M120.704 273.564C120.914 273.939 119.6 276.043 117.238 277.353C114.867 278.652 113.378 279.968 113.171 279.588C112.963 279.206 114.129 277.268 116.482 275.979C118.825 274.681 120.491 273.183 120.704 273.564Z" fill="white" stroke="white" stroke-width="0.4067" stroke-miterlimit="10"/>
<path d="M130.286 267.836C130.51 268.203 129.274 270.356 126.963 271.752C124.644 273.138 123.206 274.511 122.984 274.138C122.762 273.764 123.854 271.784 126.157 270.408C128.451 269.02 130.06 267.465 130.286 267.836Z" fill="white" stroke="white" stroke-width="0.4067" stroke-miterlimit="10"/>
<path d="M139.657 261.766C139.893 262.125 138.735 264.321 136.475 265.798C134.207 267.268 132.819 268.692 132.584 268.327C132.349 267.961 133.368 265.942 135.62 264.483C137.865 263.016 139.417 261.404 139.657 261.766Z" fill="white" stroke="white" stroke-width="0.4067" stroke-miterlimit="10"/>
<path d="M148.805 255.38C149.054 255.732 147.972 257.964 145.765 259.52C143.55 261.067 142.212 262.539 141.965 262.182C141.718 261.825 142.665 259.772 144.866 258.236C147.058 256.689 148.553 255.024 148.805 255.38Z" fill="white" stroke="white" stroke-width="0.4067" stroke-miterlimit="10"/>
<path d="M157.735 248.682C157.995 249.026 156.989 251.294 154.836 252.922C152.675 254.543 151.388 256.061 151.129 255.712C150.869 255.363 151.746 253.279 153.894 251.669C156.032 250.05 157.471 248.337 157.735 248.682Z" fill="white" stroke="white" stroke-width="0.4067" stroke-miterlimit="10"/>
<path d="M166.442 241.692C166.713 242.027 165.784 244.33 163.679 246.019C161.58 247.72 160.34 249.274 160.071 248.936C159.799 248.596 160.611 246.488 162.696 244.796C164.787 243.118 166.167 241.355 166.442 241.692Z" fill="white" stroke="white" stroke-width="0.4067" stroke-miterlimit="10"/>
<path d="M174.921 234.424C175.204 234.748 174.348 237.079 172.299 238.837C170.256 240.605 169.068 242.198 168.787 241.868C168.504 241.538 169.246 239.404 171.277 237.648C173.313 235.901 174.636 234.096 174.921 234.424Z" fill="white" stroke="white" stroke-width="0.4067" stroke-miterlimit="10"/>
<path d="M183.167 226.887C183.46 227.201 182.678 229.56 180.686 231.381C178.701 233.214 177.564 234.843 177.272 234.524C176.98 234.203 177.653 232.046 179.627 230.225C181.607 228.415 182.872 226.568 183.167 226.887Z" fill="white" stroke="white" stroke-width="0.4067" stroke-miterlimit="10"/>
<path d="M191.173 219.093C191.475 219.401 190.768 221.781 188.834 223.663C186.906 225.558 185.82 227.223 185.521 226.912C185.216 226.599 185.823 224.424 187.739 222.541C189.661 220.67 190.868 218.784 191.173 219.093Z" fill="white" stroke="white" stroke-width="0.4067" stroke-miterlimit="10"/>
<path d="M198.932 211.054C199.244 211.352 198.611 213.753 196.737 215.695C194.87 217.647 193.837 219.347 193.527 219.046C193.214 218.742 193.752 216.549 195.607 214.608C197.47 212.677 198.618 210.755 198.932 211.054Z" fill="white" stroke="white" stroke-width="0.4067" stroke-miterlimit="10"/>
<path d="M206.438 202.778C206.759 203.065 206.201 205.487 204.387 207.485C202.581 209.495 201.602 211.224 201.283 210.933C200.96 210.64 201.429 208.43 203.224 206.434C205.027 204.446 206.114 202.489 206.438 202.778Z" fill="white" stroke="white" stroke-width="0.4067" stroke-miterlimit="10"/>
<path d="M213.686 194.277C214.016 194.554 213.53 196.99 211.78 199.044C210.036 201.108 209.11 202.867 208.781 202.586C208.45 202.302 208.852 200.08 210.585 198.027C212.326 195.986 213.354 193.997 213.686 194.277Z" fill="white" stroke="white" stroke-width="0.4067" stroke-miterlimit="10"/>
<path d="M220.678 185.557C221.015 185.825 220.605 188.274 218.916 190.379C217.235 192.494 216.362 194.281 216.025 194.01C215.686 193.737 216.02 191.503 217.691 189.401C219.37 187.307 220.337 185.288 220.678 185.557Z" fill="white" stroke="white" stroke-width="0.4067" stroke-miterlimit="10"/>
<path d="M227.402 176.629C227.747 176.886 227.411 179.347 225.788 181.503C224.172 183.669 223.355 185.482 223.011 185.22C222.662 184.957 222.928 182.715 224.534 180.562C226.147 178.419 227.051 176.37 227.402 176.629Z" fill="white" stroke="white" stroke-width="0.4067" stroke-miterlimit="10"/>
<path d="M233.839 167.496C234.193 167.741 233.935 170.212 232.379 172.418C230.832 174.634 230.071 176.47 229.719 176.22C229.363 175.968 229.559 173.718 231.097 171.516C232.643 169.323 233.484 167.247 233.839 167.496Z" fill="white" stroke="white" stroke-width="0.4067" stroke-miterlimit="10"/>
<path d="M239.989 158.163C240.349 158.397 240.168 160.873 238.693 163.133C237.205 165.39 236.507 167.253 236.146 167.014C235.784 166.775 235.904 164.516 237.38 162.273C238.848 160.026 239.624 157.926 239.989 158.163Z" fill="white" stroke="white" stroke-width="0.4067" stroke-miterlimit="10"/>
<path d="M245.83 148.636C246.199 148.859 246.098 151.339 244.697 153.646C243.284 155.951 242.646 157.835 242.277 157.607C241.907 157.379 241.955 155.119 243.358 152.83C244.75 150.536 245.457 148.412 245.83 148.636Z" fill="white" stroke="white" stroke-width="0.4067" stroke-miterlimit="10"/>
<path d="M251.353 138.92C251.728 139.131 251.71 141.612 250.385 143.966C249.05 146.317 248.476 148.221 248.099 148.006C247.722 147.79 247.696 145.528 249.022 143.193C250.336 140.855 250.973 138.709 251.353 138.92Z" fill="white" stroke="white" stroke-width="0.4067" stroke-miterlimit="10"/>
<path d="M256.539 129.022C256.922 129.22 256.99 131.701 255.746 134.098C254.493 136.493 253.981 138.416 253.599 138.213C253.214 138.01 253.11 135.751 254.357 133.372C255.59 130.992 256.152 128.825 256.539 129.022Z" fill="white" stroke="white" stroke-width="0.4067" stroke-miterlimit="10"/>
<path d="M261.373 118.95C261.763 119.133 261.919 121.61 260.761 124.051C259.592 126.489 259.151 128.427 258.759 128.239C258.368 128.051 258.185 125.797 259.347 123.376C260.497 120.952 260.979 118.765 261.373 118.95Z" fill="white" stroke="white" stroke-width="0.4067" stroke-miterlimit="10"/>
<path d="M265.837 108.708C266.233 108.878 266.48 111.348 265.412 113.828C264.331 116.307 263.96 118.261 263.562 118.086C263.165 117.912 262.901 115.665 263.974 113.204C265.035 110.741 265.437 108.538 265.837 108.708Z" fill="white" stroke="white" stroke-width="0.4067" stroke-miterlimit="10"/>
<path d="M269.913 98.306C270.314 98.461 270.656 100.919 269.684 103.44C268.698 105.958 268.399 107.924 267.996 107.765C267.592 107.605 267.244 105.369 268.222 102.87C269.187 100.369 269.505 98.151 269.913 98.306Z" fill="white" stroke="white" stroke-width="0.4067" stroke-miterlimit="10"/>
<path d="M273.573 87.754C273.981 87.892 274.42 90.334 273.548 92.892C272.66 95.448 272.439 97.423 272.03 97.281C271.619 97.137 271.185 94.918 272.065 92.382C272.932 89.844 273.162 87.615 273.573 87.754Z" fill="white" stroke="white" stroke-width="0.4067" stroke-miterlimit="10"/>
<path d="M276.8 77.0608C277.212 77.1818 277.754 79.6039 276.987 82.1959C276.205 84.7859 276.064 86.7688 275.649 86.6418C275.233 86.5158 274.71 84.3158 275.485 81.7458C276.246 79.1768 276.382 76.9398 276.8 77.0608Z" fill="white" stroke="white" stroke-width="0.4067" stroke-miterlimit="10"/>
<path d="M279.505 66.2439C279.921 66.3429 280.595 68.7329 279.961 71.3619C279.311 73.9959 279.247 75.9779 278.831 75.8719C278.406 75.7639 277.797 73.5889 278.438 70.9899C279.067 68.3879 279.08 66.1439 279.505 66.2439Z" fill="white" stroke="white" stroke-width="0.4067" stroke-miterlimit="10"/>
<path d="M281.778 55.3039C282.201 55.3889 282.936 57.7599 282.395 60.4029C281.847 63.0479 281.887 65.0389 281.462 64.9489C281.037 64.8609 280.314 62.7189 280.859 60.0869C281.398 57.4549 281.352 55.2179 281.778 55.3039Z" fill="white" stroke="white" stroke-width="0.4067" stroke-miterlimit="10"/>
<path d="M283.808 44.302C284.232 44.378 285.019 46.733 284.536 49.386C284.048 52.042 284.135 54.032 283.707 53.952C283.28 53.873 282.508 51.747 282.995 49.103C283.476 46.461 283.381 44.225 283.808 44.302Z" fill="white" stroke="white" stroke-width="0.4067" stroke-miterlimit="10"/>
<path d="M285.397 34.3279C285.821 34.3939 286.668 36.7259 286.253 39.3919C285.825 42.0589 285.965 44.0439 285.536 43.9759C285.106 43.9079 284.279 41.8029 284.703 39.1469C285.117 36.4969 284.966 34.2599 285.397 34.3279Z" fill="white" stroke="white" stroke-width="0.4067" stroke-miterlimit="10"/>
<path d="M62.1404 306.888C62.2424 307.304 60.4204 308.99 57.7984 309.627C53.1514 310.752 52.7974 309.224 57.4284 308.103C60.0324 307.469 62.0364 306.463 62.1404 306.888Z" fill="white" stroke="white" stroke-width="0.4067" stroke-miterlimit="10"/>
<path d="M71.8174 304.056C71.9414 304.469 70.2064 306.244 67.6134 307.008C65.0144 307.757 63.2724 308.71 63.1544 308.294C63.0344 307.876 64.6004 306.243 67.1754 305.502C69.7424 304.743 71.6914 303.64 71.8174 304.056Z" fill="white" stroke="white" stroke-width="0.4067" stroke-miterlimit="10"/>
<path d="M82.5152 300.408C82.6582 300.813 81.0092 302.668 78.4562 303.555C75.8972 304.429 74.2033 305.468 74.0653 305.058C73.9253 304.644 75.4092 302.939 77.9462 302.073C80.4752 301.192 82.3692 299.998 82.5152 300.408Z" fill="white" stroke="white" stroke-width="0.4067" stroke-miterlimit="10"/>
<path d="M93.0395 296.274C93.2015 296.673 91.6365 298.599 89.1265 299.6C86.6105 300.59 84.9654 301.706 84.8084 301.301C84.6504 300.897 86.0545 299.123 88.5485 298.141C91.0375 297.149 92.8765 295.871 93.0395 296.274Z" fill="white" stroke="white" stroke-width="0.4067" stroke-miterlimit="10"/>
<path d="M103.381 291.691C103.559 292.084 102.076 294.073 99.6133 295.18C97.1413 296.278 95.5473 297.463 95.3733 297.066C95.1983 296.669 96.5233 294.837 98.9743 293.749C101.417 292.649 103.201 291.296 103.381 291.691Z" fill="white" stroke="white" stroke-width="0.4067" stroke-miterlimit="10"/>
<path d="M113.532 286.69C113.726 287.075 112.323 289.121 109.907 290.328C107.482 291.523 105.938 292.774 105.747 292.385C105.556 291.994 106.804 290.11 109.21 288.923C111.608 287.725 113.335 286.302 113.532 286.69Z" fill="white" stroke="white" stroke-width="0.4067" stroke-miterlimit="10"/>
<path d="M123.481 281.296C123.689 281.673 122.366 283.773 119.999 285.071C117.624 286.36 116.128 287.67 115.923 287.289C115.716 286.905 116.89 284.974 119.249 283.693C121.598 282.404 123.27 280.916 123.481 281.296Z" fill="white" stroke="white" stroke-width="0.4067" stroke-miterlimit="10"/>
<path d="M133.226 275.536C133.448 275.905 132.203 278.051 129.885 279.436C127.56 280.812 126.114 282.177 125.895 281.804C125.674 281.43 126.775 279.453 129.084 278.086C131.385 276.713 133.001 275.164 133.226 275.536Z" fill="white" stroke="white" stroke-width="0.4067" stroke-miterlimit="10"/>
<path d="M142.757 269.432C142.992 269.793 141.822 271.982 139.555 273.449C137.28 274.906 135.886 276.325 135.653 275.958C135.42 275.592 136.447 273.578 138.707 272.13C140.958 270.672 142.52 269.067 142.757 269.432Z" fill="white" stroke="white" stroke-width="0.4067" stroke-miterlimit="10"/>
<path d="M152.066 263.005C152.313 263.359 151.218 265.585 149.004 267.129C146.781 268.665 145.436 270.131 145.19 269.773C144.944 269.416 145.902 267.366 148.111 265.84C150.311 264.307 151.816 262.65 152.066 263.005Z" fill="white" stroke="white" stroke-width="0.4067" stroke-miterlimit="10"/>
<path d="M161.16 256.267C161.419 256.611 160.399 258.874 158.238 260.49C156.068 262.1 154.773 263.61 154.515 263.26C154.257 262.912 155.145 260.832 157.302 259.233C159.449 257.627 160.897 255.92 161.16 256.267Z" fill="white" stroke="white" stroke-width="0.4067" stroke-miterlimit="10"/>
<path d="M170.029 249.233C170.299 249.568 169.356 251.865 167.241 253.544C165.132 255.232 163.884 256.779 163.616 256.44C163.346 256.098 164.169 253.995 166.264 252.316C168.365 250.648 169.756 248.894 170.029 249.233Z" fill="white" stroke="white" stroke-width="0.4067" stroke-miterlimit="10"/>
<path d="M178.669 241.915C178.949 242.242 178.08 244.569 176.021 246.312C173.968 248.069 172.77 249.656 172.491 249.325C172.21 248.991 172.964 246.862 175.006 245.117C177.052 243.384 178.386 241.585 178.669 241.915Z" fill="white" stroke="white" stroke-width="0.4067" stroke-miterlimit="10"/>
<path d="M187.077 234.327C187.367 234.645 186.571 236.997 184.567 238.806C182.572 240.625 181.424 242.25 181.134 241.927C180.843 241.605 181.53 239.452 183.514 237.644C185.505 235.846 186.783 234.007 187.077 234.327Z" fill="white" stroke="white" stroke-width="0.4067" stroke-miterlimit="10"/>
<path d="M195.244 226.479C195.544 226.787 194.822 229.164 192.876 231.034C190.937 232.914 189.84 234.574 189.543 234.262C189.24 233.947 189.859 231.776 191.787 229.906C193.722 228.046 194.94 226.167 195.244 226.479Z" fill="white" stroke="white" stroke-width="0.4067" stroke-miterlimit="10"/>
<path d="M203.165 218.38C203.474 218.68 202.824 221.077 200.938 223.006C199.058 224.948 198.015 226.64 197.707 226.337C197.395 226.031 197.947 223.841 199.816 221.912C201.692 219.994 202.852 218.079 203.165 218.38Z" fill="white" stroke="white" stroke-width="0.4067" stroke-miterlimit="10"/>
<path d="M210.831 210.045C211.149 210.333 210.575 212.75 208.749 214.737C206.929 216.734 205.938 218.458 205.62 218.165C205.301 217.868 205.785 215.662 207.592 213.677C209.409 211.701 210.508 209.752 210.831 210.045Z" fill="white" stroke="white" stroke-width="0.4067" stroke-miterlimit="10"/>
<path d="M218.248 201.464C218.575 201.743 218.073 204.176 216.315 206.224C214.549 208.268 213.616 210.025 213.288 209.742C212.961 209.457 213.372 207.233 215.127 205.2C216.875 203.164 217.916 201.182 218.248 201.464Z" fill="white" stroke="white" stroke-width="0.4067" stroke-miterlimit="10"/>
<path d="M225.39 192.687C225.725 192.956 225.296 195.403 223.594 197.497C221.899 199.601 221.013 201.382 220.679 201.108C220.342 200.832 220.69 198.6 222.375 196.508C224.069 194.428 225.05 192.415 225.39 192.687Z" fill="white" stroke="white" stroke-width="0.4067" stroke-miterlimit="10"/>
<path d="M232.271 183.685C232.614 183.945 232.259 186.403 230.622 188.546C228.991 190.7 228.161 192.507 227.818 192.244C227.473 191.978 227.753 189.737 229.375 187.596C231.003 185.466 231.924 183.424 232.271 183.685Z" fill="white" stroke="white" stroke-width="0.4067" stroke-miterlimit="10"/>
<path d="M238.872 174.476C239.224 174.725 238.945 177.193 237.374 179.387C235.809 181.591 235.035 183.421 234.684 183.168C234.331 182.914 234.543 180.666 236.097 178.475C237.66 176.295 238.516 174.225 238.872 174.476Z" fill="white" stroke="white" stroke-width="0.4067" stroke-miterlimit="10"/>
<path d="M245.181 165.066C245.54 165.303 245.338 167.778 243.844 170.026C242.339 172.27 241.627 174.129 241.268 173.885C240.907 173.643 241.045 171.385 242.541 169.154C244.026 166.92 244.819 164.827 245.181 165.066Z" fill="white" stroke="white" stroke-width="0.4067" stroke-miterlimit="10"/>
<path d="M251.189 155.459C251.554 155.686 251.432 158.165 250.009 160.46C248.578 162.752 247.925 164.632 247.558 164.4C247.19 164.169 247.256 161.908 248.679 159.63C250.092 157.349 250.818 155.232 251.189 155.459Z" fill="white" stroke="white" stroke-width="0.4067" stroke-miterlimit="10"/>
<path d="M256.878 145.662C257.252 145.876 257.211 148.357 255.865 150.698C254.509 153.036 253.916 154.935 253.542 154.717C253.167 154.498 253.159 152.237 254.508 149.913C255.845 147.587 256.5 145.447 256.878 145.662Z" fill="white" stroke="white" stroke-width="0.4067" stroke-miterlimit="10"/>
<path d="M262.237 135.68C262.617 135.881 262.66 138.364 261.393 140.748C260.117 143.13 259.588 145.048 259.206 144.842C258.823 144.635 258.741 142.375 260.01 140.009C261.268 137.64 261.852 135.478 262.237 135.68Z" fill="white" stroke="white" stroke-width="0.4067" stroke-miterlimit="10"/>
<path d="M267.247 125.52C267.635 125.708 267.763 128.186 266.579 130.614C265.386 133.039 264.922 134.974 264.534 134.781C264.145 134.588 263.985 132.332 265.172 129.923C266.347 127.513 266.855 125.331 267.247 125.52Z" fill="white" stroke="white" stroke-width="0.4067" stroke-miterlimit="10"/>
<path d="M271.892 115.189C272.287 115.363 272.505 117.835 271.409 120.304C270.301 122.77 269.907 124.72 269.512 124.54C269.116 124.36 268.877 122.112 269.979 119.663C271.065 117.213 271.494 115.015 271.892 115.189Z" fill="white" stroke="white" stroke-width="0.4067" stroke-miterlimit="10"/>
<path d="M276.155 104.695C276.555 104.854 276.866 107.316 275.861 109.824C274.845 112.33 274.522 114.293 274.122 114.129C273.72 113.965 273.399 111.726 274.408 109.238C275.405 106.748 275.751 104.536 276.155 104.695Z" fill="white" stroke="white" stroke-width="0.4067" stroke-miterlimit="10"/>
<path d="M280.015 94.0479C280.42 94.1919 280.825 96.6399 279.918 99.1859C278.997 101.728 278.75 103.702 278.342 103.552C277.934 103.404 277.529 101.178 278.444 98.6539C279.344 96.1289 279.605 93.9039 280.015 94.0479Z" fill="white" stroke="white" stroke-width="0.4067" stroke-miterlimit="10"/>
<path d="M283.447 83.2567C283.858 83.3837 284.361 85.8137 283.555 88.3937C282.738 90.9707 282.567 92.9537 282.154 92.8207C281.741 92.6867 281.249 90.4807 282.06 87.9227C282.859 85.3617 283.032 83.1287 283.447 83.2567Z" fill="white" stroke="white" stroke-width="0.4067" stroke-miterlimit="10"/>
<path d="M286.427 72.3368C286.84 72.4448 287.457 74.8548 286.75 77.4628C286.044 80.0748 285.952 82.0608 285.536 81.9448C285.115 81.8298 284.535 79.6438 285.236 77.0528C285.938 74.4678 286.003 72.2248 286.427 72.3368Z" fill="white" stroke="white" stroke-width="0.4067" stroke-miterlimit="10"/>
<path d="M288.946 61.3009C289.367 61.3939 290.068 63.7749 289.479 66.4099C288.879 69.0469 288.875 71.0359 288.454 70.9379C288.029 70.8399 287.353 68.6819 287.95 66.0649C288.534 63.4469 288.521 61.2079 288.946 61.3009Z" fill="white" stroke="white" stroke-width="0.4067" stroke-miterlimit="10"/>
<path d="M291.058 50.1718C291.482 50.2488 292.272 52.6018 291.782 55.2588C291.278 57.9158 291.348 59.9038 290.923 59.8218C290.495 59.7398 289.74 57.6088 290.24 54.9708C290.727 52.3328 290.631 50.0958 291.058 50.1718Z" fill="white" stroke="white" stroke-width="0.4067" stroke-miterlimit="10"/>
<path d="M292.558 40.0698C292.982 40.1318 293.861 42.4508 293.479 45.1248C293.083 47.7988 293.242 49.7798 292.813 49.7178C292.383 49.6548 291.536 47.5568 291.929 44.8998C292.308 42.2448 292.125 40.0088 292.558 40.0698Z" fill="white" stroke="white" stroke-width="0.4067" stroke-miterlimit="10"/>
<path d="M303.779 47.6409C303.673 48.4429 303.562 49.2449 303.448 50.0489" stroke="white" stroke-width="1.6211" stroke-linecap="round" stroke-linejoin="round"/>
<path d="M302.456 56.4089C293.308 110.491 265.596 166.146 223.556 214.393C178.56 266.035 122.533 302.668 67.1382 317.253" stroke="white" stroke-width="1.6211" stroke-linecap="round" stroke-linejoin="round" stroke-dasharray="4.83 6.44"/>
<path d="M64.0163 318.053C63.2293 318.248 62.4423 318.44 61.6553 318.626C61.7143 318.679 61.7713 318.73 61.8303 318.783" stroke="white" stroke-width="1.6211" stroke-linecap="round" stroke-linejoin="round"/>
<defs>
<radialGradient id="paint0_radial_1201_2" cx="0" cy="0" r="1" gradientUnits="userSpaceOnUse" gradientTransform="translate(189.783 189.39) scale(135.054 135.154)">
<stop stop-color="#83C72D"/>
<stop offset="0.182" stop-color="#83C72D"/>
<stop offset="0.6893" stop-color="#83C72D"/>
<stop offset="0.848958" stop-color="#83C72D"/>
<stop offset="1" stop-color="#83C72D"/>
</radialGradient>
</defs>
</svg>
