<svg width="800" height="800" viewBox="0 0 800 800" fill="none" xmlns="http://www.w3.org/2000/svg">
<path d="M519.574 250.863C595.179 316.842 603.027 431.667 537.098 507.334C471.169 582.998 356.435 590.851 280.827 524.872C205.222 458.892 197.375 344.067 263.303 268.403C329.232 192.736 443.967 184.883 519.574 250.863Z" fill="#83C72D"/>
<path d="M509.079 259.779C545.122 291.232 516.899 360.312 453.508 433.067C390.116 505.821 324.268 544.707 288.227 513.254C215.528 449.813 203.626 344.4 267.018 271.647C330.411 198.888 436.379 196.338 509.079 259.779Z" fill="#83C72D"/>
<path opacity="0.5" d="M536.916 268.169C527.083 322.22 499.27 380.067 454.769 431.142C408.003 484.815 351.324 521.233 296.671 537.243" stroke="black" stroke-width="1.6211" stroke-miterlimit="10"/>
<path opacity="0.2" d="M466.549 441.8C508.116 394.093 536.934 339.381 549.558 284.98C545.57 279.173 541.203 273.563 536.475 268.17C526.642 322.221 498.838 380.066 454.335 431.142C407.569 484.815 350.892 521.217 296.239 537.229C302.154 541.345 308.243 545.076 314.481 548.402C369.153 529.29 422.84 491.965 466.549 441.8Z" fill="#83C72D"/>
<path d="M296.239 537.229C350.892 521.217 407.569 484.815 454.335 431.142C498.838 380.067 526.642 322.221 536.475 268.17C532.08 263.154 527.372 258.329 522.344 253.731C514.831 310.533 486.437 369.624 442.121 420.483C395.64 473.829 337.387 511.16 280.22 524.715C280.279 524.768 280.336 524.819 280.395 524.872C285.504 529.332 290.799 533.441 296.239 537.229Z" fill="url(#paint0_radial_1101_302)"/>
<path opacity="0.5" d="M314.481 548.401C369.153 529.29 422.84 491.965 466.549 441.8C508.116 394.093 536.934 339.381 549.558 284.98" stroke="#D1D3D4" stroke-width="1.6211" stroke-miterlimit="10" stroke-linecap="round" stroke-linejoin="round"/>
<path opacity="0.5" d="M522.344 253.73C514.831 310.532 486.437 369.623 442.121 420.482C395.64 473.829 337.387 511.16 280.22 524.715" stroke="#D1D3D4" stroke-width="1.6211" stroke-miterlimit="10" stroke-linecap="round" stroke-linejoin="round"/>
<path d="M314.481 548.401C315.245 548.134 316.009 547.863 316.772 547.589" stroke="white" stroke-width="1.6211" stroke-linecap="round" stroke-linejoin="round"/>
<path d="M322.914 545.307C374.654 525.414 425.09 489.383 466.55 441.8C506.704 395.715 534.96 343.094 548.215 290.53" stroke="white" stroke-width="1.6211" stroke-linecap="round" stroke-linejoin="round" stroke-dasharray="4.91 6.55"/>
<path d="M548.999 287.345C549.189 286.556 549.376 285.768 549.559 284.979" stroke="white" stroke-width="1.6211" stroke-linecap="round" stroke-linejoin="round"/>
<path d="M522.344 253.73C522.238 254.532 522.127 255.334 522.013 256.138" stroke="white" stroke-width="1.6211" stroke-linecap="round" stroke-linejoin="round"/>
<path d="M521.021 262.498C511.873 316.58 484.161 372.235 442.121 420.482C397.125 472.124 341.098 508.757 285.703 523.342" stroke="white" stroke-width="1.6211" stroke-linecap="round" stroke-linejoin="round" stroke-dasharray="4.83 6.44"/>
<path d="M282.581 524.142C281.794 524.337 281.007 524.529 280.22 524.715C280.279 524.768 280.336 524.819 280.395 524.872" stroke="white" stroke-width="1.6211" stroke-linecap="round" stroke-linejoin="round"/>
<path d="M562.45 317.369C562.034 317.243 561.552 314.806 562.328 312.237C562.802 310.945 563.218 310.909 563.637 311.035C564.05 311.16 563.614 313.435 563.524 313.79C562.99 315.871 562.802 317.476 562.45 317.369Z" fill="white" stroke="white" stroke-width="0.4067" stroke-miterlimit="10"/>
<path d="M559.209 327.021C558.799 326.881 558.396 324.429 559.254 321.889C560.104 319.34 560.27 317.347 560.684 317.484C561.093 317.621 561.594 319.824 560.74 322.388C559.877 324.945 559.617 327.162 559.209 327.021Z" fill="white" stroke="white" stroke-width="0.4067" stroke-miterlimit="10"/>
<path d="M555.256 337.721C554.851 337.569 554.528 335.105 555.468 332.593C556.401 330.073 556.633 328.087 557.043 328.238C557.446 328.387 557.875 330.606 556.937 333.141C555.99 335.667 555.66 337.874 555.256 337.721Z" fill="white" stroke="white" stroke-width="0.4067" stroke-miterlimit="10"/>
<path d="M550.963 348.284C550.563 348.118 550.318 345.645 551.338 343.166C552.351 340.677 552.647 338.699 553.052 338.862C553.452 339.025 553.809 341.257 552.789 343.759C551.764 346.256 551.361 348.45 550.963 348.284Z" fill="white" stroke="white" stroke-width="0.4067" stroke-miterlimit="10"/>
<path d="M546.344 358.705C545.949 358.527 545.781 356.049 546.878 353.601C547.967 351.145 548.325 349.178 548.726 349.354C549.12 349.529 549.406 351.77 548.309 354.241C547.206 356.702 546.736 358.884 546.344 358.705Z" fill="white" stroke="white" stroke-width="0.4067" stroke-miterlimit="10"/>
<path d="M541.411 368.976C541.021 368.786 540.932 366.304 542.093 363.886C543.269 361.47 543.68 359.512 544.076 359.701C544.464 359.887 544.686 362.138 543.505 364.568C542.337 367 541.799 369.166 541.411 368.976Z" fill="white" stroke="white" stroke-width="0.4067" stroke-miterlimit="10"/>
<path d="M536.176 379.096C535.791 378.895 535.774 376.411 537.008 374.029C538.254 371.649 538.726 369.704 539.114 369.905C539.496 370.102 539.651 372.359 538.397 374.754C537.158 377.148 536.558 379.298 536.176 379.096Z" fill="white" stroke="white" stroke-width="0.4067" stroke-miterlimit="10"/>
<path d="M530.646 389.062C530.269 388.848 530.323 386.367 531.625 384.021C532.939 381.677 533.467 379.748 533.852 379.959C534.227 380.167 534.315 382.428 532.994 384.785C531.685 387.143 531.021 389.273 530.646 389.062Z" fill="white" stroke="white" stroke-width="0.4067" stroke-miterlimit="10"/>
<path d="M524.832 398.865C524.462 398.641 524.587 396.161 525.956 393.853C527.336 391.547 527.918 389.634 528.297 389.858C528.667 390.076 528.691 392.339 527.303 394.657C525.926 396.977 525.203 399.088 524.832 398.865Z" fill="white" stroke="white" stroke-width="0.4067" stroke-miterlimit="10"/>
<path d="M518.748 408.502C518.382 408.269 518.577 405.794 520.009 403.525C521.454 401.259 522.09 399.362 522.462 399.596C522.826 399.825 522.785 402.087 521.334 404.365C519.892 406.646 519.11 408.736 518.748 408.502Z" fill="white" stroke="white" stroke-width="0.4067" stroke-miterlimit="10"/>
<path d="M512.398 417.97C512.04 417.726 512.302 415.257 513.795 413.029C515.302 410.803 515.991 408.925 516.356 409.17C516.712 409.409 516.611 411.669 515.096 413.906C513.594 416.145 512.755 418.213 512.398 417.97Z" fill="white" stroke="white" stroke-width="0.4067" stroke-miterlimit="10"/>
<path d="M505.795 427.261C505.443 427.008 505.772 424.547 507.325 422.36C508.891 420.176 509.631 418.318 509.988 418.572C510.34 418.821 510.176 421.078 508.602 423.272C507.039 425.47 506.145 427.513 505.795 427.261Z" fill="white" stroke="white" stroke-width="0.4067" stroke-miterlimit="10"/>
<path d="M498.944 436.372C498.599 436.109 498.993 433.658 500.606 431.514C502.229 429.372 503.019 427.535 503.369 427.798C503.714 428.057 503.489 430.307 501.856 432.459C500.235 434.614 499.288 436.636 498.944 436.372Z" fill="white" stroke="white" stroke-width="0.4067" stroke-miterlimit="10"/>
<path d="M491.856 445.3C491.519 445.028 491.976 442.589 493.644 440.487C495.325 438.388 496.162 436.573 496.505 436.845C496.842 437.112 496.559 439.357 494.87 441.465C493.193 443.577 492.191 445.571 491.856 445.3Z" fill="white" stroke="white" stroke-width="0.4067" stroke-miterlimit="10"/>
<path d="M484.54 454.037C484.21 453.757 484.73 451.329 486.454 449.272C488.186 447.219 489.071 445.424 489.408 445.707C489.737 445.982 489.395 448.219 487.653 450.282C485.92 452.35 484.868 454.316 484.54 454.037Z" fill="white" stroke="white" stroke-width="0.4067" stroke-miterlimit="10"/>
<path d="M476.997 462.58C476.672 462.29 477.26 459.878 479.035 457.867C480.821 455.86 481.754 454.09 482.081 454.38C482.404 454.665 482.004 456.892 480.208 458.909C478.423 460.93 477.318 462.868 476.997 462.58Z" fill="white" stroke="white" stroke-width="0.4067" stroke-miterlimit="10"/>
<path d="M469.221 470.915C468.906 470.617 469.556 468.223 471.387 466.261C473.228 464.304 474.207 462.56 474.527 462.858C474.842 463.153 474.381 465.367 472.532 467.334C470.69 469.305 469.533 471.213 469.221 470.915Z" fill="white" stroke="white" stroke-width="0.4067" stroke-miterlimit="10"/>
<path d="M461.223 479.038C460.915 478.732 461.631 476.355 463.514 474.444C465.407 472.537 466.432 470.82 466.745 471.128C467.053 471.429 466.531 473.632 464.628 475.548C462.735 477.469 461.527 479.344 461.223 479.038Z" fill="white" stroke="white" stroke-width="0.4067" stroke-miterlimit="10"/>
<path d="M453.009 486.942C452.71 486.629 453.49 484.271 455.423 482.412C457.367 480.558 458.439 478.869 458.742 479.184C459.042 479.493 458.461 481.679 456.507 483.543C454.563 485.414 453.305 487.257 453.009 486.942Z" fill="white" stroke="white" stroke-width="0.4067" stroke-miterlimit="10"/>
<path d="M444.584 494.622C444.294 494.299 445.138 491.965 447.119 490.158C449.113 488.355 450.23 486.697 450.524 487.02C450.815 487.338 450.176 489.508 448.172 491.32C446.179 493.135 444.872 494.944 444.584 494.622Z" fill="white" stroke="white" stroke-width="0.4067" stroke-miterlimit="10"/>
<path d="M435.954 502.069C435.673 501.74 436.58 499.427 438.61 497.675C440.651 495.928 441.812 494.3 442.099 494.631C442.38 494.957 441.683 497.11 439.631 498.864C437.589 500.626 436.234 502.398 435.954 502.069Z" fill="white" stroke="white" stroke-width="0.4067" stroke-miterlimit="10"/>
<path d="M427.124 509.278C426.852 508.941 427.82 506.654 429.899 504.959C431.987 503.268 433.193 501.673 433.469 502.012C433.741 502.345 432.987 504.479 430.887 506.176C428.799 507.882 427.395 509.614 427.124 509.278Z" fill="white" stroke="white" stroke-width="0.4067" stroke-miterlimit="10"/>
<path d="M418.098 516.239C417.835 515.893 418.867 513.636 420.993 511.999C423.126 510.368 424.376 508.805 424.643 509.151C424.906 509.492 424.092 511.603 421.947 513.244C419.81 514.89 418.358 516.584 418.098 516.239Z" fill="white" stroke="white" stroke-width="0.4067" stroke-miterlimit="10"/>
<path d="M408.88 522.944C408.626 522.592 409.722 520.364 411.891 518.787C414.071 517.218 415.364 515.69 415.621 516.044C415.874 516.393 415.001 518.48 412.81 520.059C410.628 521.645 409.13 523.296 408.88 522.944Z" fill="white" stroke="white" stroke-width="0.4067" stroke-miterlimit="10"/>
<path d="M399.472 529.384C399.229 529.025 400.389 526.829 402.601 525.316C404.825 523.808 406.161 522.319 406.407 522.68C406.651 523.035 405.72 525.095 403.483 526.611C401.259 528.135 399.713 529.742 399.472 529.384Z" fill="white" stroke="white" stroke-width="0.4067" stroke-miterlimit="10"/>
<path d="M389.88 535.545C389.648 535.177 390.872 533.019 393.128 531.569C395.395 530.128 396.773 528.677 397.01 529.047C397.243 529.409 396.252 531.443 393.972 532.892C391.703 534.349 390.11 535.909 389.88 535.545Z" fill="white" stroke="white" stroke-width="0.4067" stroke-miterlimit="10"/>
<path d="M380.107 541.414C379.886 541.04 381.175 538.92 383.474 537.539C385.783 536.167 387.203 534.759 387.43 535.135C387.651 535.504 386.6 537.505 384.278 538.887C381.965 540.273 380.326 541.786 380.107 541.414Z" fill="white" stroke="white" stroke-width="0.4067" stroke-miterlimit="10"/>
<path d="M370.156 546.978C369.948 546.6 371.301 544.515 373.646 543.216C375.99 541.906 377.457 540.548 377.67 540.93C377.881 541.307 376.766 543.271 374.408 544.588C372.048 545.895 370.364 547.357 370.156 546.978Z" fill="white" stroke="white" stroke-width="0.4067" stroke-miterlimit="10"/>
<path d="M360.032 552.222C359.836 551.833 361.256 549.797 363.641 548.575C366.026 547.341 367.534 546.03 367.736 546.418C367.935 546.802 366.758 548.729 364.359 549.971C361.958 551.2 360.227 552.606 360.032 552.222Z" fill="white" stroke="white" stroke-width="0.4067" stroke-miterlimit="10"/>
<path d="M349.737 557.123C349.553 556.73 351.042 554.741 353.467 553.601C355.891 552.447 357.443 551.186 357.631 551.58C357.817 551.97 356.577 553.857 354.138 555.018C351.697 556.168 349.919 557.515 349.737 557.123Z" fill="white" stroke="white" stroke-width="0.4067" stroke-miterlimit="10"/>
<path d="M344.152 557.829C346.616 556.756 348.21 555.551 348.384 555.951C348.556 556.347 347.25 558.19 344.777 559.269C342.305 560.343 341.691 558.9 344.152 557.829Z" fill="white" stroke="white" stroke-width="0.4067" stroke-miterlimit="10"/>
<path d="M557.087 307.168C556.668 307.053 556.123 304.629 556.834 302.041C557.049 301.308 557.607 300.691 558.028 300.807C558.445 300.921 558.673 300.861 558.346 302.456C557.632 305.057 557.502 307.283 557.087 307.168Z" fill="white" stroke="white" stroke-width="0.4067" stroke-miterlimit="10"/>
<path d="M554.103 316.832C553.69 316.702 553.228 314.261 554.024 311.701C554.809 309.132 554.926 307.135 555.343 307.262C555.755 307.388 556.312 309.577 555.521 312.162C554.722 314.741 554.514 316.962 554.103 316.832Z" fill="white" stroke="white" stroke-width="0.4067" stroke-miterlimit="10"/>
<path d="M550.43 327.54C550.022 327.395 549.642 324.94 550.523 322.407C551.395 319.867 551.581 317.876 551.994 318.016C552.402 318.156 552.884 320.364 552.005 322.92C551.116 325.47 550.836 327.683 550.43 327.54Z" fill="white" stroke="white" stroke-width="0.4067" stroke-miterlimit="10"/>
<path d="M546.403 338.118C546 337.962 545.701 335.495 546.665 332.992C547.622 330.482 547.872 328.498 548.28 328.652C548.683 328.805 549.092 331.028 548.129 333.553C547.158 336.072 546.806 338.276 546.403 338.118Z" fill="white" stroke="white" stroke-width="0.4067" stroke-miterlimit="10"/>
<path d="M542.039 348.559C541.641 348.388 541.422 345.913 542.467 343.444C543.503 340.965 543.818 338.991 544.222 339.159C544.618 339.324 544.954 341.559 543.911 344.053C542.86 346.537 542.437 348.729 542.039 348.559Z" fill="white" stroke="white" stroke-width="0.4067" stroke-miterlimit="10"/>
<path d="M537.35 358.852C536.958 358.67 536.816 356.19 537.938 353.753C539.052 351.309 539.428 349.345 539.828 349.525C540.22 349.703 540.484 351.947 539.362 354.407C538.233 356.857 537.741 359.035 537.35 358.852Z" fill="white" stroke="white" stroke-width="0.4067" stroke-miterlimit="10"/>
<path d="M532.35 368.992C531.962 368.797 531.899 366.315 533.085 363.909C534.285 361.506 534.717 359.552 535.111 359.745C535.495 359.935 535.695 362.188 534.489 364.607C533.296 367.026 532.734 369.186 532.35 368.992Z" fill="white" stroke="white" stroke-width="0.4067" stroke-miterlimit="10"/>
<path d="M527.045 378.978C526.663 378.772 526.673 376.29 527.933 373.92C529.204 371.553 529.696 369.613 530.082 369.817C530.462 370.019 530.593 372.278 529.314 374.659C528.048 377.042 527.425 379.183 527.045 378.978Z" fill="white" stroke="white" stroke-width="0.4067" stroke-miterlimit="10"/>
<path d="M521.447 388.804C521.072 388.587 521.154 386.106 522.482 383.776C523.823 381.446 524.372 379.523 524.753 379.739C525.126 379.951 525.191 382.214 523.843 384.555C522.508 386.898 521.821 389.021 521.447 388.804Z" fill="white" stroke="white" stroke-width="0.4067" stroke-miterlimit="10"/>
<path d="M515.57 398.466C515.201 398.237 515.354 395.761 516.749 393.469C518.156 391.179 518.761 389.273 519.134 389.498C519.503 389.724 519.501 391.985 518.086 394.288C516.685 396.592 515.936 398.693 515.57 398.466Z" fill="white" stroke="white" stroke-width="0.4067" stroke-miterlimit="10"/>
<path d="M509.421 407.959C509.059 407.721 509.281 405.249 510.738 402.997C512.211 400.748 512.869 398.858 513.236 399.096C513.596 399.33 513.532 401.592 512.053 403.854C510.587 406.117 509.779 408.196 509.421 407.959Z" fill="white" stroke="white" stroke-width="0.4067" stroke-miterlimit="10"/>
<path d="M503.008 417.279C502.653 417.03 502.944 414.564 504.464 412.355C505.998 410.147 506.708 408.277 507.069 408.525C507.423 408.769 507.295 411.028 505.754 413.247C504.226 415.469 503.361 417.526 503.008 417.279Z" fill="white" stroke="white" stroke-width="0.4067" stroke-miterlimit="10"/>
<path d="M496.345 426.419C495.996 426.162 496.354 423.704 497.935 421.537C499.527 419.373 500.289 417.522 500.643 417.781C500.991 418.033 500.799 420.288 499.2 422.464C497.61 424.644 496.691 426.677 496.345 426.419Z" fill="white" stroke="white" stroke-width="0.4067" stroke-miterlimit="10"/>
<path d="M489.438 435.378C489.096 435.111 489.518 432.665 491.157 430.539C492.807 428.419 493.617 426.59 493.966 426.857C494.306 427.12 494.055 429.369 492.398 431.501C490.75 433.636 489.777 435.644 489.438 435.378Z" fill="white" stroke="white" stroke-width="0.4067" stroke-miterlimit="10"/>
<path d="M482.297 444.151C481.963 443.875 482.448 441.44 484.144 439.361C485.848 437.283 486.707 435.477 487.047 435.753C487.381 436.024 487.071 438.265 485.358 440.354C483.654 442.444 482.629 444.426 482.297 444.151Z" fill="white" stroke="white" stroke-width="0.4067" stroke-miterlimit="10"/>
<path d="M474.929 452.735C474.601 452.45 475.151 450.03 476.904 447.999C478.656 445.96 479.564 444.181 479.896 444.466C480.222 444.746 479.852 446.976 478.09 449.024C476.329 451.064 475.253 453.02 474.929 452.735Z" fill="white" stroke="white" stroke-width="0.4067" stroke-miterlimit="10"/>
<path d="M467.331 461.121C467.011 460.828 467.628 458.423 469.429 456.435C471.242 454.451 472.194 452.693 472.52 452.986C472.838 453.275 472.411 455.496 470.588 457.491C468.777 459.49 467.648 461.413 467.331 461.121Z" fill="white" stroke="white" stroke-width="0.4067" stroke-miterlimit="10"/>
<path d="M459.512 469.297C459.2 468.994 459.88 466.608 461.736 464.669C463.601 462.735 464.601 461.003 464.918 461.306C465.231 461.604 464.741 463.813 462.866 465.756C461.001 467.705 459.82 469.598 459.512 469.297Z" fill="white" stroke="white" stroke-width="0.4067" stroke-miterlimit="10"/>
<path d="M451.473 477.257C451.17 476.946 451.916 474.578 453.822 472.691C455.74 470.808 456.787 469.104 457.095 469.417C457.398 469.723 456.85 471.917 454.922 473.809C453.006 475.705 451.774 477.565 451.473 477.257Z" fill="white" stroke="white" stroke-width="0.4067" stroke-miterlimit="10"/>
<path d="M443.22 484.993C442.926 484.675 443.736 482.328 445.694 480.494C447.661 478.665 448.755 476.989 449.053 477.308C449.348 477.621 448.741 479.801 446.763 481.64C444.794 483.485 443.513 485.312 443.22 484.993Z" fill="white" stroke="white" stroke-width="0.4067" stroke-miterlimit="10"/>
<path d="M434.758 492.502C434.474 492.176 435.347 489.853 437.354 488.072C439.372 486.297 440.509 484.652 440.8 484.98C441.087 485.301 440.419 487.463 438.392 489.247C436.374 491.037 435.043 492.826 434.758 492.502Z" fill="white" stroke="white" stroke-width="0.4067" stroke-miterlimit="10"/>
<path d="M426.091 499.771C425.816 499.436 426.754 497.138 428.808 495.416C430.875 493.697 432.059 492.085 432.34 492.421C432.617 492.75 431.891 494.894 429.813 496.619C427.748 498.353 426.366 500.104 426.091 499.771Z" fill="white" stroke="white" stroke-width="0.4067" stroke-miterlimit="10"/>
<path d="M417.224 506.795C416.957 506.453 417.96 504.184 420.062 502.518C422.176 500.86 423.404 499.281 423.676 499.624C423.944 499.961 423.157 502.082 421.033 503.749C418.919 505.424 417.488 507.136 417.224 506.795Z" fill="white" stroke="white" stroke-width="0.4067" stroke-miterlimit="10"/>
<path d="M408.159 513.563C407.901 513.213 408.97 510.972 411.119 509.368C413.279 507.77 414.551 506.228 414.813 506.58C415.07 506.923 414.225 509.021 412.053 510.628C409.893 512.241 408.414 513.911 408.159 513.563Z" fill="white" stroke="white" stroke-width="0.4067" stroke-miterlimit="10"/>
<path d="M398.901 520.065C398.654 519.709 399.787 517.5 401.982 515.959C404.186 514.426 405.504 512.919 405.756 513.277C406.003 513.629 405.098 515.702 402.879 517.244C400.673 518.795 399.146 520.422 398.901 520.065Z" fill="white" stroke="white" stroke-width="0.4067" stroke-miterlimit="10"/>
<path d="M389.454 526.291C389.218 525.927 390.416 523.752 392.656 522.277C394.906 520.809 396.265 519.342 396.508 519.709C396.745 520.068 395.779 522.113 393.516 523.589C391.263 525.073 389.688 526.652 389.454 526.291Z" fill="white" stroke="white" stroke-width="0.4067" stroke-miterlimit="10"/>
<path d="M379.822 532.225C379.596 531.853 380.862 529.718 383.145 528.312C385.438 526.914 386.842 525.49 387.073 525.862C387.299 526.228 386.271 528.244 383.964 529.651C381.667 531.064 380.045 532.594 379.822 532.225Z" fill="white" stroke="white" stroke-width="0.4067" stroke-miterlimit="10"/>
<path d="M370.009 537.855C369.796 537.478 371.126 535.379 373.456 534.055C375.786 532.718 377.236 531.344 377.455 531.722C377.669 532.096 376.578 534.075 374.234 535.417C371.889 536.752 370.221 538.232 370.009 537.855Z" fill="white" stroke="white" stroke-width="0.4067" stroke-miterlimit="10"/>
<path d="M360.019 543.167C359.819 542.784 361.216 540.729 363.588 539.481C365.959 538.22 367.452 536.893 367.658 537.279C367.861 537.66 366.706 539.6 364.32 540.869C361.934 542.125 360.218 543.551 360.019 543.167Z" fill="white" stroke="white" stroke-width="0.4067" stroke-miterlimit="10"/>
<path d="M349.858 548.145C349.67 547.754 351.136 545.749 353.548 544.581C355.959 543.401 357.497 542.123 357.69 542.516C357.88 542.903 356.662 544.804 354.234 545.993C351.806 547.168 350.043 548.534 349.858 548.145Z" fill="white" stroke="white" stroke-width="0.4067" stroke-miterlimit="10"/>
<path d="M339.529 552.768C339.355 552.371 340.89 550.418 343.341 549.334C345.792 548.238 347.372 547.013 347.551 547.411C347.727 547.806 346.445 549.665 343.978 550.767C341.51 551.858 339.702 553.164 339.529 552.768Z" fill="white" stroke="white" stroke-width="0.4067" stroke-miterlimit="10"/>
<path d="M333.996 553.31C336.485 552.296 338.108 551.129 338.273 551.535C338.435 551.934 337.085 553.747 334.585 554.764C331.138 556.162 330.561 554.703 333.996 553.31Z" fill="white" stroke="white" stroke-width="0.4067" stroke-miterlimit="10"/>
<path d="M314.481 548.401C315.245 548.134 316.009 547.863 316.772 547.589" stroke="white" stroke-width="1.6211" stroke-linecap="round" stroke-linejoin="round"/>
<path d="M322.913 545.307C374.653 525.414 425.089 489.383 466.549 441.8C506.703 395.715 534.959 343.094 548.214 290.53" stroke="white" stroke-width="1.6211" stroke-linecap="round" stroke-linejoin="round" stroke-dasharray="4.91 6.55"/>
<path d="M548.998 287.345C549.188 286.556 549.375 285.768 549.558 284.979" stroke="white" stroke-width="1.6211" stroke-linecap="round" stroke-linejoin="round"/>
<path d="M278.836 505.085C278.937 505.501 277.116 507.188 274.494 507.826C271.869 508.461 268.755 509.897 268.654 509.476C268.552 509.053 271.515 506.932 274.125 506.3C276.728 505.667 278.732 504.66 278.836 505.085Z" fill="white" stroke="white" stroke-width="0.4067" stroke-miterlimit="10"/>
<path d="M288.391 502.273C288.515 502.685 286.783 504.461 284.191 505.23C281.592 505.982 279.851 506.937 279.733 506.521C279.613 506.102 281.178 504.469 283.751 503.724C286.317 502.964 288.264 501.857 288.391 502.273Z" fill="white" stroke="white" stroke-width="0.4067" stroke-miterlimit="10"/>
<path d="M298.934 498.651C299.078 499.056 297.433 500.915 294.883 501.809C292.325 502.688 290.633 503.728 290.494 503.318C290.354 502.907 291.834 501.198 294.37 500.327C296.896 499.441 298.787 498.241 298.934 498.651Z" fill="white" stroke="white" stroke-width="0.4067" stroke-miterlimit="10"/>
<path d="M309.302 494.545C309.464 494.944 307.906 496.874 305.399 497.883C302.885 498.88 301.243 499.999 301.085 499.596C300.926 499.19 302.326 497.414 304.817 496.426C307.303 495.426 309.138 494.143 309.302 494.545Z" fill="white" stroke="white" stroke-width="0.4067" stroke-miterlimit="10"/>
<path d="M319.486 489.988C319.665 490.38 318.189 492.375 315.73 493.491C313.262 494.595 311.671 495.786 311.495 495.39C311.318 494.993 312.638 493.156 315.086 492.061C317.525 490.954 319.304 489.594 319.486 489.988Z" fill="white" stroke="white" stroke-width="0.4067" stroke-miterlimit="10"/>
<path d="M329.477 485.016C329.672 485.399 328.278 487.454 325.867 488.668C323.448 489.873 321.908 491.13 321.715 490.74C321.522 490.35 322.764 488.462 325.165 487.264C327.557 486.06 329.28 484.627 329.477 485.016Z" fill="white" stroke="white" stroke-width="0.4067" stroke-miterlimit="10"/>
<path d="M339.268 479.653C339.478 480.028 338.164 482.132 335.802 483.442C333.431 484.741 331.942 486.057 331.735 485.677C331.527 485.295 332.693 483.357 335.046 482.068C337.389 480.77 339.055 479.272 339.268 479.653Z" fill="white" stroke="white" stroke-width="0.4067" stroke-miterlimit="10"/>
<path d="M348.851 473.925C349.075 474.292 347.839 476.445 345.528 477.841C343.209 479.227 341.771 480.6 341.549 480.227C341.327 479.853 342.419 477.873 344.722 476.497C347.016 475.109 348.625 473.554 348.851 473.925Z" fill="white" stroke="white" stroke-width="0.4067" stroke-miterlimit="10"/>
<path d="M358.222 467.855C358.458 468.214 357.3 470.41 355.04 471.887C352.772 473.357 351.384 474.781 351.149 474.416C350.914 474.05 351.933 472.031 354.185 470.572C356.43 469.105 357.982 467.493 358.222 467.855Z" fill="white" stroke="white" stroke-width="0.4067" stroke-miterlimit="10"/>
<path d="M367.369 461.469C367.618 461.821 366.536 464.053 364.329 465.609C362.114 467.156 360.776 468.628 360.529 468.271C360.282 467.914 361.229 465.861 363.43 464.325C365.622 462.778 367.117 461.113 367.369 461.469Z" fill="white" stroke="white" stroke-width="0.4067" stroke-miterlimit="10"/>
<path d="M376.3 454.771C376.56 455.115 375.554 457.383 373.401 459.011C371.24 460.632 369.953 462.15 369.694 461.801C369.434 461.452 370.311 459.368 372.459 457.758C374.597 456.139 376.036 454.426 376.3 454.771Z" fill="white" stroke="white" stroke-width="0.4067" stroke-miterlimit="10"/>
<path d="M385.007 447.781C385.278 448.116 384.349 450.419 382.244 452.108C380.145 453.809 378.905 455.363 378.636 455.025C378.364 454.685 379.176 452.577 381.261 450.885C383.352 449.207 384.732 447.444 385.007 447.781Z" fill="white" stroke="white" stroke-width="0.4067" stroke-miterlimit="10"/>
<path d="M393.486 440.513C393.769 440.837 392.913 443.168 390.864 444.926C388.821 446.694 387.633 448.287 387.352 447.957C387.069 447.627 387.811 445.493 389.842 443.737C391.878 441.99 393.201 440.185 393.486 440.513Z" fill="white" stroke="white" stroke-width="0.4067" stroke-miterlimit="10"/>
<path d="M401.731 432.976C402.024 433.29 401.242 435.649 399.25 437.47C397.265 439.303 396.128 440.932 395.836 440.613C395.544 440.292 396.217 438.135 398.191 436.314C400.171 434.504 401.436 432.657 401.731 432.976Z" fill="white" stroke="white" stroke-width="0.4067" stroke-miterlimit="10"/>
<path d="M409.737 425.182C410.039 425.49 409.332 427.87 407.398 429.752C405.47 431.647 404.384 433.312 404.085 433.001C403.78 432.688 404.387 430.513 406.303 428.63C408.225 426.759 409.432 424.873 409.737 425.182Z" fill="white" stroke="white" stroke-width="0.4067" stroke-miterlimit="10"/>
<path d="M417.496 417.143C417.808 417.441 417.175 419.842 415.301 421.784C413.434 423.736 412.401 425.436 412.091 425.135C411.778 424.831 412.316 422.638 414.171 420.697C416.034 418.766 417.182 416.844 417.496 417.143Z" fill="white" stroke="white" stroke-width="0.4067" stroke-miterlimit="10"/>
<path d="M425.002 408.867C425.323 409.154 424.765 411.576 422.951 413.574C421.145 415.584 420.166 417.313 419.847 417.022C419.524 416.729 419.993 414.519 421.788 412.523C423.591 410.535 424.678 408.578 425.002 408.867Z" fill="white" stroke="white" stroke-width="0.4067" stroke-miterlimit="10"/>
<path d="M432.251 400.366C432.581 400.643 432.095 403.079 430.345 405.133C428.601 407.197 427.675 408.956 427.346 408.675C427.015 408.391 427.417 406.169 429.15 404.116C430.891 402.075 431.919 400.086 432.251 400.366Z" fill="white" stroke="white" stroke-width="0.4067" stroke-miterlimit="10"/>
<path d="M439.243 391.646C439.58 391.914 439.17 394.363 437.481 396.468C435.8 398.583 434.927 400.37 434.59 400.099C434.251 399.826 434.585 397.592 436.256 395.49C437.935 393.396 438.902 391.377 439.243 391.646Z" fill="white" stroke="white" stroke-width="0.4067" stroke-miterlimit="10"/>
<path d="M445.966 382.718C446.311 382.975 445.975 385.436 444.352 387.592C442.736 389.758 441.919 391.571 441.575 391.309C441.226 391.046 441.492 388.804 443.098 386.651C444.711 384.508 445.615 382.459 445.966 382.718Z" fill="white" stroke="white" stroke-width="0.4067" stroke-miterlimit="10"/>
<path d="M452.404 373.585C452.758 373.83 452.5 376.301 450.944 378.507C449.397 380.723 448.636 382.559 448.284 382.309C447.928 382.057 448.124 379.807 449.662 377.605C451.208 375.412 452.049 373.336 452.404 373.585Z" fill="white" stroke="white" stroke-width="0.4067" stroke-miterlimit="10"/>
<path d="M458.553 364.252C458.913 364.486 458.732 366.962 457.257 369.222C455.769 371.479 455.071 373.342 454.71 373.103C454.348 372.864 454.468 370.605 455.944 368.362C457.412 366.115 458.188 364.015 458.553 364.252Z" fill="white" stroke="white" stroke-width="0.4067" stroke-miterlimit="10"/>
<path d="M464.394 354.725C464.763 354.948 464.662 357.428 463.261 359.735C461.848 362.04 461.21 363.924 460.841 363.696C460.471 363.468 460.519 361.208 461.922 358.919C463.314 356.625 464.021 354.501 464.394 354.725Z" fill="white" stroke="white" stroke-width="0.4067" stroke-miterlimit="10"/>
<path d="M469.917 345.009C470.292 345.22 470.274 347.701 468.949 350.055C467.614 352.406 467.04 354.31 466.663 354.095C466.286 353.879 466.26 351.617 467.586 349.282C468.9 346.944 469.537 344.798 469.917 345.009Z" fill="white" stroke="white" stroke-width="0.4067" stroke-miterlimit="10"/>
<path d="M475.103 335.111C475.486 335.309 475.554 337.79 474.31 340.187C473.057 342.582 472.545 344.505 472.163 344.302C471.778 344.099 471.674 341.84 472.921 339.461C474.154 337.081 474.716 334.914 475.103 335.111Z" fill="white" stroke="white" stroke-width="0.4067" stroke-miterlimit="10"/>
<path d="M479.937 325.039C480.327 325.222 480.483 327.699 479.325 330.14C478.156 332.578 477.715 334.516 477.323 334.328C476.932 334.14 476.749 331.886 477.911 329.465C479.061 327.041 479.543 324.854 479.937 325.039Z" fill="white" stroke="white" stroke-width="0.4067" stroke-miterlimit="10"/>
<path d="M484.401 314.797C484.797 314.967 485.045 317.437 483.977 319.917C482.896 322.396 482.524 324.35 482.126 324.175C481.729 324.001 481.465 321.754 482.538 319.293C483.599 316.83 484.001 314.627 484.401 314.797Z" fill="white" stroke="white" stroke-width="0.4067" stroke-miterlimit="10"/>
<path d="M488.477 304.395C488.878 304.55 489.22 307.008 488.248 309.529C487.262 312.047 486.963 314.013 486.56 313.854C486.156 313.694 485.808 311.458 486.786 308.959C487.751 306.458 488.069 304.24 488.477 304.395Z" fill="white" stroke="white" stroke-width="0.4067" stroke-miterlimit="10"/>
<path d="M492.138 293.843C492.546 293.981 492.985 296.423 492.113 298.981C491.225 301.537 491.004 303.512 490.595 303.37C490.184 303.226 489.75 301.007 490.63 298.471C491.497 295.933 491.727 293.704 492.138 293.843Z" fill="white" stroke="white" stroke-width="0.4067" stroke-miterlimit="10"/>
<path d="M495.365 283.15C495.777 283.271 496.319 285.693 495.552 288.285C494.77 290.875 494.629 292.858 494.214 292.731C493.798 292.605 493.275 290.405 494.05 287.835C494.811 285.266 494.947 283.029 495.365 283.15Z" fill="white" stroke="white" stroke-width="0.4067" stroke-miterlimit="10"/>
<path d="M498.069 272.333C498.485 272.432 499.159 274.822 498.525 277.451C497.875 280.085 497.811 282.067 497.395 281.961C496.97 281.853 496.361 279.678 497.002 277.079C497.631 274.477 497.644 272.233 498.069 272.333Z" fill="white" stroke="white" stroke-width="0.4067" stroke-miterlimit="10"/>
<path d="M500.342 261.393C500.765 261.478 501.5 263.849 500.959 266.492C500.411 269.137 500.451 271.128 500.026 271.038C499.601 270.95 498.878 268.808 499.423 266.176C499.962 263.544 499.916 261.307 500.342 261.393Z" fill="white" stroke="white" stroke-width="0.4067" stroke-miterlimit="10"/>
<path d="M502.372 250.391C502.796 250.467 503.583 252.822 503.1 255.475C502.612 258.131 502.699 260.121 502.271 260.041C501.844 259.962 501.072 257.836 501.559 255.192C502.04 252.55 501.945 250.314 502.372 250.391Z" fill="white" stroke="white" stroke-width="0.4067" stroke-miterlimit="10"/>
<path d="M503.961 240.417C504.385 240.483 505.232 242.815 504.817 245.481C504.389 248.148 504.529 250.133 504.1 250.065C503.67 249.997 502.843 247.892 503.267 245.236C503.681 242.586 503.53 240.349 503.961 240.417Z" fill="white" stroke="white" stroke-width="0.4067" stroke-miterlimit="10"/>
<path d="M280.705 512.977C280.807 513.393 278.985 515.079 276.363 515.716C271.716 516.841 271.362 515.313 275.993 514.192C278.597 513.558 280.601 512.552 280.705 512.977Z" fill="white" stroke="white" stroke-width="0.4067" stroke-miterlimit="10"/>
<path d="M290.382 510.145C290.506 510.558 288.771 512.333 286.178 513.097C283.579 513.846 281.837 514.799 281.719 514.383C281.599 513.965 283.165 512.332 285.74 511.591C288.307 510.832 290.256 509.729 290.382 510.145Z" fill="white" stroke="white" stroke-width="0.4067" stroke-miterlimit="10"/>
<path d="M301.08 506.497C301.223 506.902 299.574 508.757 297.021 509.644C294.462 510.518 292.768 511.557 292.63 511.147C292.49 510.733 293.974 509.028 296.511 508.162C299.04 507.281 300.934 506.087 301.08 506.497Z" fill="white" stroke="white" stroke-width="0.4067" stroke-miterlimit="10"/>
<path d="M311.604 502.363C311.766 502.762 310.201 504.688 307.691 505.689C305.175 506.679 303.53 507.795 303.373 507.39C303.215 506.986 304.619 505.212 307.113 504.23C309.602 503.238 311.441 501.96 311.604 502.363Z" fill="white" stroke="white" stroke-width="0.4067" stroke-miterlimit="10"/>
<path d="M321.946 497.78C322.124 498.173 320.641 500.162 318.178 501.269C315.706 502.367 314.112 503.552 313.938 503.155C313.763 502.758 315.088 500.926 317.539 499.838C319.982 498.738 321.766 497.385 321.946 497.78Z" fill="white" stroke="white" stroke-width="0.4067" stroke-miterlimit="10"/>
<path d="M332.096 492.779C332.29 493.164 330.887 495.21 328.471 496.417C326.046 497.612 324.502 498.863 324.311 498.474C324.12 498.083 325.368 496.199 327.774 495.012C330.172 493.814 331.899 492.391 332.096 492.779Z" fill="white" stroke="white" stroke-width="0.4067" stroke-miterlimit="10"/>
<path d="M342.046 487.385C342.254 487.762 340.931 489.862 338.564 491.16C336.189 492.449 334.693 493.759 334.488 493.378C334.281 492.994 335.455 491.063 337.814 489.782C340.163 488.493 341.835 487.005 342.046 487.385Z" fill="white" stroke="white" stroke-width="0.4067" stroke-miterlimit="10"/>
<path d="M351.791 481.625C352.013 481.994 350.768 484.14 348.45 485.525C346.125 486.901 344.679 488.266 344.46 487.893C344.239 487.519 345.34 485.542 347.649 484.175C349.95 482.802 351.566 481.253 351.791 481.625Z" fill="white" stroke="white" stroke-width="0.4067" stroke-miterlimit="10"/>
<path d="M361.322 475.521C361.557 475.882 360.387 478.071 358.12 479.538C355.845 480.995 354.451 482.414 354.218 482.047C353.985 481.681 355.012 479.667 357.272 478.219C359.523 476.761 361.085 475.156 361.322 475.521Z" fill="white" stroke="white" stroke-width="0.4067" stroke-miterlimit="10"/>
<path d="M370.631 469.094C370.878 469.448 369.783 471.674 367.569 473.218C365.346 474.754 364.001 476.22 363.755 475.862C363.509 475.505 364.467 473.455 366.676 471.929C368.876 470.396 370.381 468.739 370.631 469.094Z" fill="white" stroke="white" stroke-width="0.4067" stroke-miterlimit="10"/>
<path d="M379.724 462.356C379.983 462.7 378.963 464.963 376.802 466.579C374.632 468.189 373.337 469.699 373.079 469.349C372.821 469.001 373.709 466.921 375.866 465.322C378.013 463.716 379.461 462.009 379.724 462.356Z" fill="white" stroke="white" stroke-width="0.4067" stroke-miterlimit="10"/>
<path d="M388.593 455.322C388.863 455.657 387.92 457.954 385.805 459.633C383.696 461.321 382.448 462.868 382.18 462.529C381.91 462.187 382.733 460.084 384.828 458.405C386.929 456.737 388.32 454.983 388.593 455.322Z" fill="white" stroke="white" stroke-width="0.4067" stroke-miterlimit="10"/>
<path d="M397.234 448.004C397.514 448.331 396.645 450.658 394.586 452.401C392.533 454.158 391.335 455.745 391.056 455.414C390.775 455.08 391.529 452.951 393.571 451.206C395.617 449.473 396.951 447.674 397.234 448.004Z" fill="white" stroke="white" stroke-width="0.4067" stroke-miterlimit="10"/>
<path d="M405.642 440.416C405.932 440.734 405.136 443.086 403.132 444.895C401.137 446.714 399.989 448.339 399.699 448.016C399.408 447.694 400.095 445.541 402.079 443.733C404.07 441.935 405.348 440.096 405.642 440.416Z" fill="white" stroke="white" stroke-width="0.4067" stroke-miterlimit="10"/>
<path d="M413.809 432.568C414.109 432.876 413.387 435.253 411.441 437.123C409.502 439.003 408.405 440.663 408.108 440.351C407.805 440.036 408.424 437.865 410.352 435.995C412.287 434.135 413.505 432.256 413.809 432.568Z" fill="white" stroke="white" stroke-width="0.4067" stroke-miterlimit="10"/>
<path d="M421.729 424.469C422.038 424.769 421.388 427.166 419.502 429.095C417.622 431.037 416.579 432.729 416.271 432.426C415.959 432.12 416.511 429.93 418.38 428.001C420.256 426.083 421.416 424.168 421.729 424.469Z" fill="white" stroke="white" stroke-width="0.4067" stroke-miterlimit="10"/>
<path d="M429.395 416.134C429.713 416.422 429.139 418.839 427.313 420.826C425.493 422.823 424.502 424.547 424.184 424.254C423.865 423.957 424.349 421.751 426.156 419.766C427.973 417.79 429.072 415.841 429.395 416.134Z" fill="white" stroke="white" stroke-width="0.4067" stroke-miterlimit="10"/>
<path d="M436.813 407.553C437.14 407.832 436.638 410.265 434.88 412.313C433.114 414.357 432.181 416.114 431.853 415.831C431.526 415.546 431.937 413.322 433.692 411.289C435.44 409.253 436.481 407.271 436.813 407.553Z" fill="white" stroke="white" stroke-width="0.4067" stroke-miterlimit="10"/>
<path d="M443.954 398.776C444.289 399.045 443.86 401.492 442.158 403.586C440.463 405.69 439.577 407.471 439.243 407.197C438.906 406.921 439.254 404.689 440.939 402.597C442.633 400.517 443.614 398.504 443.954 398.776Z" fill="white" stroke="white" stroke-width="0.4067" stroke-miterlimit="10"/>
<path d="M450.835 389.774C451.178 390.034 450.823 392.492 449.186 394.635C447.555 396.789 446.725 398.596 446.382 398.333C446.037 398.067 446.317 395.826 447.939 393.685C449.567 391.555 450.488 389.513 450.835 389.774Z" fill="white" stroke="white" stroke-width="0.4067" stroke-miterlimit="10"/>
<path d="M457.437 380.565C457.789 380.814 457.51 383.282 455.939 385.476C454.374 387.68 453.6 389.51 453.249 389.257C452.896 389.003 453.108 386.755 454.662 384.564C456.225 382.384 457.081 380.314 457.437 380.565Z" fill="white" stroke="white" stroke-width="0.4067" stroke-miterlimit="10"/>
<path d="M463.746 371.155C464.105 371.392 463.903 373.867 462.409 376.115C460.904 378.359 460.192 380.218 459.833 379.974C459.472 379.732 459.609 377.474 461.105 375.243C462.59 373.009 463.384 370.916 463.746 371.155Z" fill="white" stroke="white" stroke-width="0.4067" stroke-miterlimit="10"/>
<path d="M469.754 361.548C470.119 361.775 469.997 364.254 468.574 366.549C467.143 368.841 466.49 370.721 466.123 370.489C465.755 370.258 465.821 367.997 467.244 365.719C468.657 363.438 469.383 361.321 469.754 361.548Z" fill="white" stroke="white" stroke-width="0.4067" stroke-miterlimit="10"/>
<path d="M475.442 351.751C475.816 351.965 475.775 354.446 474.429 356.787C473.073 359.125 472.48 361.024 472.106 360.806C471.731 360.587 471.723 358.326 473.072 356.002C474.409 353.676 475.064 351.536 475.442 351.751Z" fill="white" stroke="white" stroke-width="0.4067" stroke-miterlimit="10"/>
<path d="M480.801 341.769C481.181 341.97 481.224 344.453 479.957 346.837C478.681 349.219 478.152 351.137 477.77 350.931C477.387 350.724 477.305 348.464 478.574 346.098C479.832 343.729 480.416 341.567 480.801 341.769Z" fill="white" stroke="white" stroke-width="0.4067" stroke-miterlimit="10"/>
<path d="M485.812 331.609C486.2 331.797 486.328 334.275 485.144 336.703C483.951 339.128 483.487 341.063 483.099 340.87C482.71 340.677 482.55 338.421 483.737 336.012C484.912 333.602 485.42 331.42 485.812 331.609Z" fill="white" stroke="white" stroke-width="0.4067" stroke-miterlimit="10"/>
<path d="M490.457 321.278C490.852 321.452 491.07 323.924 489.974 326.393C488.866 328.859 488.472 330.809 488.077 330.629C487.681 330.449 487.442 328.201 488.544 325.752C489.63 323.302 490.059 321.104 490.457 321.278Z" fill="white" stroke="white" stroke-width="0.4067" stroke-miterlimit="10"/>
<path d="M494.719 310.784C495.119 310.943 495.43 313.405 494.425 315.913C493.409 318.419 493.086 320.382 492.686 320.218C492.284 320.054 491.963 317.815 492.972 315.327C493.969 312.837 494.315 310.625 494.719 310.784Z" fill="white" stroke="white" stroke-width="0.4067" stroke-miterlimit="10"/>
<path d="M498.579 300.137C498.984 300.281 499.389 302.729 498.482 305.275C497.561 307.817 497.314 309.791 496.906 309.641C496.498 309.493 496.093 307.267 497.008 304.743C497.908 302.218 498.169 299.993 498.579 300.137Z" fill="white" stroke="white" stroke-width="0.4067" stroke-miterlimit="10"/>
<path d="M502.012 289.346C502.423 289.473 502.926 291.903 502.12 294.483C501.303 297.06 501.132 299.043 500.719 298.91C500.306 298.776 499.814 296.57 500.625 294.012C501.424 291.451 501.597 289.218 502.012 289.346Z" fill="white" stroke="white" stroke-width="0.4067" stroke-miterlimit="10"/>
<path d="M504.991 278.426C505.404 278.534 506.021 280.944 505.314 283.552C504.608 286.164 504.516 288.15 504.1 288.034C503.679 287.919 503.099 285.733 503.8 283.142C504.502 280.557 504.567 278.314 504.991 278.426Z" fill="white" stroke="white" stroke-width="0.4067" stroke-miterlimit="10"/>
<path d="M507.511 267.39C507.932 267.483 508.633 269.864 508.044 272.499C507.444 275.136 507.44 277.125 507.019 277.027C506.594 276.929 505.918 274.771 506.515 272.154C507.099 269.536 507.086 267.297 507.511 267.39Z" fill="white" stroke="white" stroke-width="0.4067" stroke-miterlimit="10"/>
<path d="M509.623 256.261C510.047 256.338 510.837 258.691 510.347 261.348C509.843 264.005 509.913 265.993 509.488 265.911C509.06 265.829 508.305 263.698 508.805 261.06C509.292 258.422 509.196 256.185 509.623 256.261Z" fill="white" stroke="white" stroke-width="0.4067" stroke-miterlimit="10"/>
<path d="M511.122 246.159C511.546 246.221 512.426 248.54 512.044 251.214C511.648 253.888 511.806 255.869 511.377 255.807C510.947 255.744 510.1 253.646 510.493 250.989C510.872 248.334 510.689 246.098 511.122 246.159Z" fill="white" stroke="white" stroke-width="0.4067" stroke-miterlimit="10"/>
<path d="M522.344 253.73C522.238 254.532 522.127 255.334 522.013 256.138" stroke="white" stroke-width="1.6211" stroke-linecap="round" stroke-linejoin="round"/>
<path d="M521.021 262.498C511.873 316.58 484.161 372.235 442.121 420.482C397.125 472.124 341.098 508.757 285.703 523.342" stroke="white" stroke-width="1.6211" stroke-linecap="round" stroke-linejoin="round" stroke-dasharray="4.83 6.44"/>
<path d="M282.581 524.142C281.794 524.337 281.007 524.529 280.22 524.715C280.279 524.768 280.336 524.819 280.395 524.872" stroke="white" stroke-width="1.6211" stroke-linecap="round" stroke-linejoin="round"/>
<defs>
<radialGradient id="paint0_radial_1101_302" cx="0" cy="0" r="1" gradientUnits="userSpaceOnUse" gradientTransform="translate(408.348 395.479) scale(135.054 135.154)">
<stop stop-color="#83C72D"/>
<stop offset="0.182" stop-color="#83C72D"/>
<stop offset="0.6893" stop-color="#83C72D"/>
<stop offset="0.848958" stop-color="#83C72D"/>
<stop offset="1" stop-color="#83C72D"/>
</radialGradient>
</defs>
</svg>
