<svg width="372" height="372" viewBox="0 0 372 372" fill="none" xmlns="http://www.w3.org/2000/svg">
<g filter="url(#filter0_d_615_68)">
<path d="M305.01 44.7738C380.615 110.753 388.463 225.578 322.534 301.245C256.605 376.909 141.871 384.762 66.2627 318.783C-9.3423 252.803 -17.1893 137.978 48.7387 62.3139C114.668 -13.3531 229.403 -21.2062 305.01 44.7738Z" fill="#BF272C"/>
<path d="M294.515 53.6894C330.558 85.1424 302.335 154.222 238.944 226.977C175.552 299.731 109.704 338.617 73.6631 307.164C0.964088 243.723 -10.9379 138.31 52.4541 65.5574C115.847 -7.20155 221.815 -9.75156 294.515 53.6894Z" fill="url(#paint0_radial_615_68)"/>
<path opacity="0.5" d="M322.351 62.0801C312.518 116.131 284.705 173.978 240.204 225.053C193.438 278.726 136.759 315.144 82.1064 331.154" stroke="black" stroke-width="1.6211" stroke-miterlimit="10"/>
<path opacity="0.2" d="M251.984 235.711C293.551 188.004 322.369 133.292 334.993 78.8911C331.005 73.0841 326.638 67.4741 321.91 62.0811C312.077 116.132 284.273 173.977 239.77 225.053C193.004 278.726 136.327 315.128 81.6738 331.14C87.5888 335.256 93.6778 338.987 99.9158 342.313C154.588 323.201 208.275 285.876 251.984 235.711Z" fill="#BF272C"/>
<path d="M81.6743 331.14C136.327 315.128 193.004 278.726 239.77 225.053C284.273 173.978 312.077 116.132 321.91 62.0806C317.515 57.0646 312.807 52.2396 307.779 47.6416C300.266 104.444 271.872 163.535 227.556 214.394C181.075 267.74 122.822 305.071 65.6553 318.626C65.7143 318.679 65.7713 318.73 65.8303 318.783C70.9393 323.243 76.2343 327.352 81.6743 331.14Z" fill="url(#paint1_radial_615_68)"/>
<path opacity="0.5" d="M99.916 342.312C154.588 323.201 208.275 285.876 251.984 235.711C293.551 188.004 322.369 133.292 334.993 78.8906" stroke="#D1D3D4" stroke-width="1.6211" stroke-miterlimit="10" stroke-linecap="round" stroke-linejoin="round"/>
<path opacity="0.5" d="M307.779 47.6406C300.266 104.443 271.872 163.534 227.556 214.393C181.075 267.74 122.822 305.071 65.6553 318.626" stroke="#D1D3D4" stroke-width="1.6211" stroke-miterlimit="10" stroke-linecap="round" stroke-linejoin="round"/>
<path d="M99.916 342.312C100.68 342.045 101.444 341.774 102.207 341.5" stroke="white" stroke-width="1.6211" stroke-linecap="round" stroke-linejoin="round"/>
<path d="M108.348 339.217C160.088 319.324 210.524 283.293 251.984 235.71C292.138 189.625 320.394 137.004 333.649 84.4404" stroke="white" stroke-width="1.6211" stroke-linecap="round" stroke-linejoin="round" stroke-dasharray="4.91 6.55"/>
<path d="M334.434 81.2556C334.624 80.4666 334.811 79.6786 334.994 78.8896" stroke="white" stroke-width="1.6211" stroke-linecap="round" stroke-linejoin="round"/>
<path d="M307.78 47.6406C307.674 48.4426 307.563 49.2446 307.449 50.0486" stroke="white" stroke-width="1.6211" stroke-linecap="round" stroke-linejoin="round"/>
<path d="M306.457 56.4082C297.309 110.49 269.597 166.145 227.557 214.392C182.561 266.034 126.534 302.667 71.1387 317.252" stroke="white" stroke-width="1.6211" stroke-linecap="round" stroke-linejoin="round" stroke-dasharray="4.83 6.44"/>
<path d="M68.0163 318.053C67.2293 318.248 66.4423 318.44 65.6553 318.626C65.7143 318.679 65.7713 318.73 65.8303 318.783" stroke="white" stroke-width="1.6211" stroke-linecap="round" stroke-linejoin="round"/>
<path d="M347.886 111.279C347.47 111.153 346.988 108.716 347.764 106.147C348.238 104.855 348.654 104.819 349.073 104.945C349.486 105.07 349.05 107.345 348.96 107.7C348.426 109.781 348.238 111.386 347.886 111.279Z" fill="white" stroke="white" stroke-width="0.4067" stroke-miterlimit="10"/>
<path d="M344.646 120.931C344.236 120.791 343.833 118.339 344.691 115.799C345.541 113.25 345.707 111.257 346.121 111.394C346.53 111.531 347.031 113.734 346.177 116.298C345.314 118.855 345.054 121.072 344.646 120.931Z" fill="white" stroke="white" stroke-width="0.4067" stroke-miterlimit="10"/>
<path d="M340.692 131.632C340.287 131.48 339.964 129.016 340.904 126.504C341.837 123.984 342.069 121.998 342.479 122.149C342.882 122.298 343.311 124.517 342.373 127.052C341.426 129.578 341.096 131.785 340.692 131.632Z" fill="white" stroke="white" stroke-width="0.4067" stroke-miterlimit="10"/>
<path d="M336.399 142.194C335.999 142.028 335.754 139.555 336.774 137.076C337.787 134.587 338.083 132.609 338.488 132.772C338.888 132.935 339.245 135.167 338.225 137.669C337.2 140.166 336.797 142.36 336.399 142.194Z" fill="white" stroke="white" stroke-width="0.4067" stroke-miterlimit="10"/>
<path d="M331.78 152.616C331.385 152.438 331.217 149.96 332.314 147.512C333.403 145.056 333.761 143.089 334.162 143.265C334.556 143.44 334.842 145.681 333.745 148.152C332.642 150.613 332.172 152.795 331.78 152.616Z" fill="white" stroke="white" stroke-width="0.4067" stroke-miterlimit="10"/>
<path d="M326.847 162.886C326.457 162.696 326.368 160.214 327.529 157.796C328.705 155.38 329.116 153.422 329.512 153.611C329.9 153.797 330.122 156.048 328.941 158.478C327.773 160.91 327.235 163.076 326.847 162.886Z" fill="white" stroke="white" stroke-width="0.4067" stroke-miterlimit="10"/>
<path d="M321.612 173.006C321.227 172.805 321.21 170.321 322.444 167.939C323.69 165.559 324.162 163.614 324.55 163.815C324.932 164.012 325.087 166.269 323.833 168.664C322.594 171.058 321.994 173.208 321.612 173.006Z" fill="white" stroke="white" stroke-width="0.4067" stroke-miterlimit="10"/>
<path d="M316.082 182.972C315.705 182.758 315.759 180.277 317.061 177.931C318.375 175.587 318.903 173.658 319.288 173.869C319.663 174.077 319.751 176.338 318.43 178.695C317.121 181.053 316.457 183.183 316.082 182.972Z" fill="white" stroke="white" stroke-width="0.4067" stroke-miterlimit="10"/>
<path d="M310.267 192.776C309.897 192.552 310.022 190.072 311.391 187.764C312.771 185.458 313.353 183.545 313.732 183.769C314.102 183.987 314.126 186.25 312.738 188.568C311.361 190.888 310.638 192.999 310.267 192.776Z" fill="white" stroke="white" stroke-width="0.4067" stroke-miterlimit="10"/>
<path d="M304.184 202.413C303.818 202.18 304.013 199.705 305.445 197.436C306.89 195.17 307.526 193.273 307.898 193.507C308.262 193.736 308.221 195.998 306.77 198.276C305.328 200.557 304.546 202.647 304.184 202.413Z" fill="white" stroke="white" stroke-width="0.4067" stroke-miterlimit="10"/>
<path d="M297.834 211.88C297.476 211.636 297.738 209.167 299.231 206.939C300.738 204.713 301.427 202.835 301.792 203.08C302.148 203.319 302.047 205.579 300.532 207.816C299.03 210.055 298.191 212.123 297.834 211.88Z" fill="white" stroke="white" stroke-width="0.4067" stroke-miterlimit="10"/>
<path d="M291.23 221.171C290.878 220.918 291.207 218.457 292.76 216.27C294.326 214.086 295.066 212.228 295.423 212.482C295.775 212.731 295.611 214.988 294.037 217.182C292.474 219.38 291.58 221.423 291.23 221.171Z" fill="white" stroke="white" stroke-width="0.4067" stroke-miterlimit="10"/>
<path d="M284.379 230.283C284.034 230.02 284.428 227.569 286.041 225.425C287.664 223.283 288.454 221.446 288.804 221.709C289.149 221.968 288.924 224.218 287.291 226.37C285.67 228.525 284.723 230.547 284.379 230.283Z" fill="white" stroke="white" stroke-width="0.4067" stroke-miterlimit="10"/>
<path d="M277.291 239.211C276.954 238.939 277.411 236.5 279.079 234.398C280.76 232.299 281.597 230.484 281.94 230.756C282.277 231.023 281.994 233.268 280.305 235.376C278.628 237.488 277.626 239.482 277.291 239.211Z" fill="white" stroke="white" stroke-width="0.4067" stroke-miterlimit="10"/>
<path d="M269.976 247.947C269.646 247.667 270.166 245.239 271.89 243.182C273.622 241.129 274.507 239.334 274.844 239.617C275.173 239.892 274.831 242.129 273.089 244.192C271.356 246.26 270.304 248.226 269.976 247.947Z" fill="white" stroke="white" stroke-width="0.4067" stroke-miterlimit="10"/>
<path d="M262.433 256.49C262.108 256.2 262.696 253.788 264.471 251.777C266.257 249.77 267.19 248 267.517 248.29C267.84 248.575 267.44 250.802 265.644 252.819C263.859 254.84 262.754 256.778 262.433 256.49Z" fill="white" stroke="white" stroke-width="0.4067" stroke-miterlimit="10"/>
<path d="M254.656 264.826C254.341 264.528 254.991 262.134 256.822 260.172C258.663 258.215 259.642 256.471 259.962 256.769C260.277 257.064 259.816 259.278 257.967 261.245C256.125 263.216 254.968 265.124 254.656 264.826Z" fill="white" stroke="white" stroke-width="0.4067" stroke-miterlimit="10"/>
<path d="M246.659 272.949C246.351 272.643 247.067 270.266 248.95 268.355C250.843 266.448 251.868 264.731 252.181 265.039C252.489 265.34 251.967 267.543 250.064 269.459C248.171 271.38 246.963 273.255 246.659 272.949Z" fill="white" stroke="white" stroke-width="0.4067" stroke-miterlimit="10"/>
<path d="M238.445 280.853C238.146 280.54 238.926 278.182 240.859 276.323C242.803 274.469 243.875 272.78 244.178 273.095C244.478 273.404 243.897 275.59 241.943 277.454C239.999 279.325 238.741 281.168 238.445 280.853Z" fill="white" stroke="white" stroke-width="0.4067" stroke-miterlimit="10"/>
<path d="M230.02 288.532C229.73 288.209 230.574 285.875 232.555 284.068C234.549 282.265 235.666 280.607 235.96 280.93C236.251 281.248 235.612 283.418 233.608 285.23C231.615 287.045 230.308 288.854 230.02 288.532Z" fill="white" stroke="white" stroke-width="0.4067" stroke-miterlimit="10"/>
<path d="M221.39 295.979C221.109 295.65 222.016 293.337 224.046 291.585C226.087 289.838 227.248 288.21 227.535 288.541C227.816 288.867 227.119 291.02 225.067 292.774C223.025 294.536 221.67 296.308 221.39 295.979Z" fill="white" stroke="white" stroke-width="0.4067" stroke-miterlimit="10"/>
<path d="M212.561 303.189C212.289 302.852 213.257 300.565 215.336 298.87C217.424 297.179 218.63 295.584 218.906 295.923C219.178 296.256 218.424 298.39 216.324 300.087C214.236 301.793 212.832 303.525 212.561 303.189Z" fill="white" stroke="white" stroke-width="0.4067" stroke-miterlimit="10"/>
<path d="M203.534 310.149C203.271 309.803 204.303 307.546 206.429 305.909C208.562 304.278 209.812 302.715 210.079 303.061C210.342 303.402 209.528 305.513 207.383 307.154C205.246 308.8 203.794 310.494 203.534 310.149Z" fill="white" stroke="white" stroke-width="0.4067" stroke-miterlimit="10"/>
<path d="M194.315 316.855C194.061 316.503 195.157 314.275 197.326 312.698C199.506 311.129 200.799 309.601 201.056 309.955C201.309 310.304 200.436 312.391 198.245 313.97C196.063 315.556 194.565 317.207 194.315 316.855Z" fill="white" stroke="white" stroke-width="0.4067" stroke-miterlimit="10"/>
<path d="M184.907 323.295C184.664 322.936 185.824 320.74 188.036 319.227C190.26 317.719 191.596 316.23 191.842 316.591C192.086 316.946 191.155 319.006 188.918 320.522C186.694 322.046 185.148 323.653 184.907 323.295Z" fill="white" stroke="white" stroke-width="0.4067" stroke-miterlimit="10"/>
<path d="M175.315 329.456C175.083 329.088 176.307 326.93 178.563 325.48C180.83 324.039 182.208 322.588 182.445 322.958C182.678 323.32 181.687 325.354 179.407 326.803C177.138 328.26 175.545 329.82 175.315 329.456Z" fill="white" stroke="white" stroke-width="0.4067" stroke-miterlimit="10"/>
<path d="M165.543 335.324C165.322 334.95 166.611 332.83 168.91 331.449C171.219 330.077 172.639 328.669 172.866 329.045C173.087 329.414 172.036 331.415 169.714 332.797C167.401 334.183 165.762 335.696 165.543 335.324Z" fill="white" stroke="white" stroke-width="0.4067" stroke-miterlimit="10"/>
<path d="M155.591 340.889C155.383 340.511 156.736 338.426 159.081 337.127C161.425 335.817 162.892 334.459 163.105 334.841C163.316 335.218 162.201 337.182 159.843 338.499C157.483 339.806 155.799 341.268 155.591 340.889Z" fill="white" stroke="white" stroke-width="0.4067" stroke-miterlimit="10"/>
<path d="M145.468 346.132C145.272 345.743 146.692 343.707 149.077 342.485C151.462 341.251 152.97 339.94 153.172 340.328C153.371 340.712 152.194 342.639 149.795 343.881C147.394 345.11 145.663 346.516 145.468 346.132Z" fill="white" stroke="white" stroke-width="0.4067" stroke-miterlimit="10"/>
<path d="M135.173 351.034C134.989 350.641 136.478 348.652 138.903 347.512C141.327 346.358 142.879 345.097 143.067 345.491C143.253 345.881 142.013 347.768 139.574 348.929C137.133 350.079 135.355 351.426 135.173 351.034Z" fill="white" stroke="white" stroke-width="0.4067" stroke-miterlimit="10"/>
<path d="M129.588 351.74C132.052 350.667 133.646 349.462 133.82 349.862C133.992 350.258 132.686 352.101 130.213 353.18C127.741 354.254 127.127 352.811 129.588 351.74Z" fill="white" stroke="white" stroke-width="0.4067" stroke-miterlimit="10"/>
<path d="M342.523 101.078C342.104 100.963 341.559 98.5392 342.27 95.9512C342.485 95.2182 343.043 94.6012 343.464 94.7172C343.881 94.8312 344.109 94.7712 343.782 96.3662C343.068 98.9672 342.938 101.193 342.523 101.078Z" fill="white" stroke="white" stroke-width="0.4067" stroke-miterlimit="10"/>
<path d="M339.539 110.742C339.126 110.612 338.664 108.171 339.46 105.611C340.245 103.042 340.362 101.045 340.779 101.172C341.191 101.298 341.748 103.487 340.957 106.072C340.158 108.651 339.95 110.872 339.539 110.742Z" fill="white" stroke="white" stroke-width="0.4067" stroke-miterlimit="10"/>
<path d="M335.866 121.45C335.458 121.305 335.079 118.85 335.96 116.317C336.832 113.777 337.018 111.786 337.431 111.926C337.839 112.066 338.32 114.274 337.441 116.83C336.552 119.38 336.272 121.593 335.866 121.45Z" fill="white" stroke="white" stroke-width="0.4067" stroke-miterlimit="10"/>
<path d="M331.839 132.028C331.436 131.872 331.137 129.405 332.101 126.902C333.058 124.392 333.308 122.408 333.716 122.562C334.119 122.715 334.528 124.938 333.565 127.463C332.594 129.982 332.242 132.186 331.839 132.028Z" fill="white" stroke="white" stroke-width="0.4067" stroke-miterlimit="10"/>
<path d="M327.475 142.47C327.077 142.299 326.858 139.824 327.903 137.355C328.939 134.876 329.254 132.902 329.658 133.07C330.054 133.235 330.39 135.47 329.347 137.964C328.296 140.448 327.873 142.64 327.475 142.47Z" fill="white" stroke="white" stroke-width="0.4067" stroke-miterlimit="10"/>
<path d="M322.787 152.762C322.395 152.58 322.253 150.1 323.375 147.663C324.489 145.219 324.865 143.255 325.265 143.435C325.657 143.613 325.921 145.857 324.799 148.317C323.67 150.767 323.178 152.945 322.787 152.762Z" fill="white" stroke="white" stroke-width="0.4067" stroke-miterlimit="10"/>
<path d="M317.786 162.902C317.398 162.707 317.335 160.225 318.521 157.819C319.721 155.416 320.153 153.462 320.547 153.655C320.931 153.845 321.131 156.098 319.925 158.517C318.732 160.936 318.17 163.096 317.786 162.902Z" fill="white" stroke="white" stroke-width="0.4067" stroke-miterlimit="10"/>
<path d="M312.48 172.889C312.098 172.683 312.108 170.201 313.368 167.831C314.639 165.464 315.131 163.524 315.517 163.728C315.897 163.93 316.028 166.189 314.749 168.57C313.483 170.953 312.86 173.094 312.48 172.889Z" fill="white" stroke="white" stroke-width="0.4067" stroke-miterlimit="10"/>
<path d="M306.883 182.714C306.508 182.497 306.59 180.016 307.918 177.686C309.259 175.356 309.808 173.433 310.189 173.649C310.562 173.861 310.627 176.124 309.279 178.465C307.944 180.808 307.257 182.931 306.883 182.714Z" fill="white" stroke="white" stroke-width="0.4067" stroke-miterlimit="10"/>
<path d="M301.006 192.376C300.637 192.147 300.79 189.671 302.185 187.379C303.592 185.089 304.197 183.183 304.57 183.408C304.939 183.634 304.937 185.895 303.522 188.198C302.121 190.502 301.372 192.603 301.006 192.376Z" fill="white" stroke="white" stroke-width="0.4067" stroke-miterlimit="10"/>
<path d="M294.856 201.87C294.494 201.632 294.716 199.16 296.173 196.908C297.646 194.659 298.304 192.769 298.671 193.007C299.031 193.241 298.967 195.503 297.488 197.765C296.022 200.028 295.214 202.107 294.856 201.87Z" fill="white" stroke="white" stroke-width="0.4067" stroke-miterlimit="10"/>
<path d="M288.443 211.189C288.088 210.94 288.379 208.474 289.899 206.265C291.433 204.057 292.143 202.187 292.504 202.435C292.858 202.679 292.73 204.938 291.189 207.157C289.661 209.379 288.796 211.436 288.443 211.189Z" fill="white" stroke="white" stroke-width="0.4067" stroke-miterlimit="10"/>
<path d="M281.781 220.329C281.432 220.072 281.79 217.614 283.371 215.447C284.963 213.283 285.725 211.432 286.079 211.691C286.427 211.943 286.235 214.198 284.636 216.374C283.046 218.554 282.127 220.587 281.781 220.329Z" fill="white" stroke="white" stroke-width="0.4067" stroke-miterlimit="10"/>
<path d="M274.874 229.288C274.532 229.021 274.954 226.575 276.593 224.449C278.243 222.329 279.053 220.5 279.402 220.767C279.742 221.03 279.491 223.279 277.834 225.411C276.186 227.546 275.213 229.554 274.874 229.288Z" fill="white" stroke="white" stroke-width="0.4067" stroke-miterlimit="10"/>
<path d="M267.732 238.061C267.398 237.785 267.883 235.35 269.579 233.271C271.283 231.193 272.142 229.387 272.482 229.663C272.816 229.934 272.506 232.175 270.793 234.264C269.089 236.354 268.064 238.336 267.732 238.061Z" fill="white" stroke="white" stroke-width="0.4067" stroke-miterlimit="10"/>
<path d="M260.365 246.645C260.037 246.36 260.587 243.94 262.34 241.909C264.092 239.87 265 238.091 265.332 238.376C265.658 238.656 265.288 240.886 263.526 242.934C261.765 244.974 260.689 246.93 260.365 246.645Z" fill="white" stroke="white" stroke-width="0.4067" stroke-miterlimit="10"/>
<path d="M252.766 255.031C252.446 254.738 253.063 252.333 254.864 250.345C256.677 248.361 257.629 246.603 257.955 246.896C258.273 247.185 257.846 249.406 256.023 251.401C254.212 253.4 253.083 255.323 252.766 255.031Z" fill="white" stroke="white" stroke-width="0.4067" stroke-miterlimit="10"/>
<path d="M244.948 263.207C244.636 262.904 245.316 260.518 247.172 258.579C249.037 256.645 250.037 254.913 250.354 255.216C250.667 255.514 250.177 257.723 248.302 259.666C246.437 261.615 245.256 263.508 244.948 263.207Z" fill="white" stroke="white" stroke-width="0.4067" stroke-miterlimit="10"/>
<path d="M236.909 271.167C236.606 270.856 237.352 268.488 239.258 266.601C241.176 264.718 242.223 263.014 242.531 263.327C242.834 263.633 242.286 265.827 240.358 267.719C238.442 269.615 237.21 271.475 236.909 271.167Z" fill="white" stroke="white" stroke-width="0.4067" stroke-miterlimit="10"/>
<path d="M228.656 278.903C228.362 278.585 229.172 276.238 231.13 274.404C233.097 272.575 234.191 270.899 234.489 271.218C234.784 271.531 234.177 273.711 232.199 275.55C230.23 277.395 228.949 279.222 228.656 278.903Z" fill="white" stroke="white" stroke-width="0.4067" stroke-miterlimit="10"/>
<path d="M220.193 286.413C219.909 286.087 220.782 283.764 222.789 281.983C224.807 280.208 225.944 278.563 226.235 278.891C226.522 279.212 225.854 281.374 223.827 283.158C221.809 284.948 220.478 286.737 220.193 286.413Z" fill="white" stroke="white" stroke-width="0.4067" stroke-miterlimit="10"/>
<path d="M211.527 293.681C211.252 293.346 212.19 291.048 214.244 289.326C216.311 287.607 217.495 285.995 217.776 286.331C218.053 286.66 217.327 288.804 215.249 290.529C213.184 292.263 211.802 294.014 211.527 293.681Z" fill="white" stroke="white" stroke-width="0.4067" stroke-miterlimit="10"/>
<path d="M202.659 300.706C202.392 300.364 203.396 298.095 205.498 296.429C207.612 294.771 208.839 293.192 209.111 293.535C209.379 293.872 208.592 295.993 206.468 297.66C204.354 299.335 202.923 301.047 202.659 300.706Z" fill="white" stroke="white" stroke-width="0.4067" stroke-miterlimit="10"/>
<path d="M193.594 307.473C193.336 307.123 194.405 304.882 196.554 303.278C198.714 301.68 199.986 300.138 200.248 300.49C200.505 300.833 199.661 302.931 197.489 304.538C195.329 306.151 193.849 307.821 193.594 307.473Z" fill="white" stroke="white" stroke-width="0.4067" stroke-miterlimit="10"/>
<path d="M184.336 313.975C184.089 313.619 185.222 311.41 187.417 309.869C189.621 308.336 190.939 306.829 191.191 307.187C191.438 307.539 190.533 309.612 188.314 311.154C186.108 312.705 184.581 314.332 184.336 313.975Z" fill="white" stroke="white" stroke-width="0.4067" stroke-miterlimit="10"/>
<path d="M174.89 320.202C174.654 319.838 175.852 317.663 178.092 316.188C180.342 314.72 181.701 313.253 181.944 313.62C182.181 313.979 181.215 316.024 178.952 317.5C176.699 318.984 175.124 320.563 174.89 320.202Z" fill="white" stroke="white" stroke-width="0.4067" stroke-miterlimit="10"/>
<path d="M165.257 326.135C165.031 325.763 166.297 323.628 168.58 322.222C170.873 320.824 172.277 319.4 172.508 319.772C172.734 320.138 171.706 322.154 169.399 323.561C167.102 324.974 165.48 326.504 165.257 326.135Z" fill="white" stroke="white" stroke-width="0.4067" stroke-miterlimit="10"/>
<path d="M155.445 331.765C155.232 331.388 156.562 329.289 158.892 327.965C161.222 326.628 162.672 325.254 162.891 325.632C163.105 326.006 162.014 327.985 159.67 329.327C157.325 330.662 155.657 332.142 155.445 331.765Z" fill="white" stroke="white" stroke-width="0.4067" stroke-miterlimit="10"/>
<path d="M145.454 337.077C145.254 336.694 146.651 334.639 149.023 333.391C151.394 332.13 152.887 330.803 153.093 331.189C153.296 331.57 152.141 333.51 149.755 334.779C147.369 336.035 145.653 337.461 145.454 337.077Z" fill="white" stroke="white" stroke-width="0.4067" stroke-miterlimit="10"/>
<path d="M135.294 342.055C135.106 341.664 136.572 339.659 138.984 338.491C141.395 337.311 142.933 336.033 143.126 336.426C143.316 336.813 142.098 338.714 139.67 339.903C137.242 341.078 135.479 342.444 135.294 342.055Z" fill="white" stroke="white" stroke-width="0.4067" stroke-miterlimit="10"/>
<path d="M124.965 346.678C124.791 346.281 126.326 344.328 128.777 343.244C131.228 342.148 132.808 340.923 132.987 341.321C133.163 341.716 131.881 343.575 129.414 344.677C126.946 345.768 125.138 347.074 124.965 346.678Z" fill="white" stroke="white" stroke-width="0.4067" stroke-miterlimit="10"/>
<path d="M119.432 347.22C121.921 346.206 123.544 345.039 123.709 345.445C123.871 345.844 122.521 347.657 120.021 348.674C116.574 350.072 115.997 348.613 119.432 347.22Z" fill="white" stroke="white" stroke-width="0.4067" stroke-miterlimit="10"/>
<path d="M99.916 342.312C100.68 342.045 101.444 341.774 102.207 341.5" stroke="white" stroke-width="1.6211" stroke-linecap="round" stroke-linejoin="round"/>
<path d="M108.348 339.217C160.088 319.324 210.524 283.293 251.984 235.71C292.138 189.625 320.394 137.004 333.649 84.4404" stroke="white" stroke-width="1.6211" stroke-linecap="round" stroke-linejoin="round" stroke-dasharray="4.91 6.55"/>
<path d="M334.434 81.2556C334.624 80.4666 334.811 79.6786 334.994 78.8896" stroke="white" stroke-width="1.6211" stroke-linecap="round" stroke-linejoin="round"/>
<path d="M64.2715 298.996C64.3725 299.412 62.5515 301.099 59.9295 301.737C57.3045 302.372 54.1905 303.808 54.0895 303.387C53.9875 302.964 56.9505 300.843 59.5605 300.211C62.1635 299.578 64.1675 298.571 64.2715 298.996Z" fill="white" stroke="white" stroke-width="0.4067" stroke-miterlimit="10"/>
<path d="M73.8265 296.183C73.9505 296.595 72.2186 298.371 69.6266 299.14C67.0276 299.892 65.2865 300.847 65.1685 300.431C65.0485 300.012 66.6136 298.379 69.1866 297.634C71.7526 296.874 73.6995 295.767 73.8265 296.183Z" fill="white" stroke="white" stroke-width="0.4067" stroke-miterlimit="10"/>
<path d="M84.369 292.561C84.513 292.966 82.868 294.825 80.318 295.719C77.76 296.598 76.068 297.638 75.929 297.228C75.789 296.817 77.269 295.108 79.805 294.237C82.331 293.351 84.222 292.151 84.369 292.561Z" fill="white" stroke="white" stroke-width="0.4067" stroke-miterlimit="10"/>
<path d="M94.737 288.456C94.899 288.855 93.341 290.785 90.834 291.794C88.32 292.791 86.678 293.91 86.52 293.507C86.361 293.101 87.761 291.325 90.252 290.337C92.738 289.337 94.573 288.054 94.737 288.456Z" fill="white" stroke="white" stroke-width="0.4067" stroke-miterlimit="10"/>
<path d="M104.922 283.899C105.101 284.291 103.625 286.286 101.166 287.402C98.6978 288.506 97.1068 289.697 96.9308 289.301C96.7538 288.904 98.0738 287.067 100.522 285.972C102.961 284.865 104.74 283.505 104.922 283.899Z" fill="white" stroke="white" stroke-width="0.4067" stroke-miterlimit="10"/>
<path d="M114.912 278.926C115.107 279.309 113.713 281.364 111.302 282.578C108.883 283.783 107.343 285.04 107.15 284.65C106.957 284.26 108.199 282.372 110.6 281.174C112.992 279.97 114.715 278.537 114.912 278.926Z" fill="white" stroke="white" stroke-width="0.4067" stroke-miterlimit="10"/>
<path d="M124.703 273.563C124.913 273.938 123.599 276.042 121.237 277.352C118.866 278.651 117.377 279.967 117.17 279.587C116.962 279.205 118.128 277.267 120.481 275.978C122.824 274.68 124.49 273.182 124.703 273.563Z" fill="white" stroke="white" stroke-width="0.4067" stroke-miterlimit="10"/>
<path d="M134.286 267.836C134.51 268.203 133.274 270.356 130.963 271.752C128.644 273.138 127.206 274.511 126.984 274.138C126.762 273.764 127.854 271.784 130.157 270.408C132.451 269.02 134.06 267.465 134.286 267.836Z" fill="white" stroke="white" stroke-width="0.4067" stroke-miterlimit="10"/>
<path d="M143.658 261.765C143.894 262.124 142.736 264.32 140.476 265.797C138.208 267.267 136.82 268.691 136.585 268.326C136.35 267.96 137.369 265.941 139.621 264.482C141.866 263.015 143.418 261.403 143.658 261.765Z" fill="white" stroke="white" stroke-width="0.4067" stroke-miterlimit="10"/>
<path d="M152.804 255.38C153.053 255.732 151.971 257.964 149.764 259.52C147.549 261.067 146.211 262.539 145.964 262.182C145.717 261.825 146.664 259.772 148.865 258.236C151.057 256.689 152.552 255.024 152.804 255.38Z" fill="white" stroke="white" stroke-width="0.4067" stroke-miterlimit="10"/>
<path d="M161.735 248.681C161.995 249.025 160.989 251.293 158.836 252.921C156.675 254.542 155.388 256.06 155.129 255.711C154.869 255.362 155.746 253.278 157.894 251.668C160.032 250.049 161.471 248.336 161.735 248.681Z" fill="white" stroke="white" stroke-width="0.4067" stroke-miterlimit="10"/>
<path d="M170.442 241.692C170.713 242.027 169.784 244.33 167.679 246.019C165.58 247.72 164.34 249.274 164.071 248.936C163.799 248.596 164.611 246.488 166.696 244.796C168.787 243.118 170.167 241.355 170.442 241.692Z" fill="white" stroke="white" stroke-width="0.4067" stroke-miterlimit="10"/>
<path d="M178.921 234.424C179.204 234.748 178.348 237.079 176.299 238.837C174.256 240.605 173.068 242.198 172.787 241.868C172.504 241.538 173.246 239.404 175.277 237.648C177.313 235.901 178.636 234.096 178.921 234.424Z" fill="white" stroke="white" stroke-width="0.4067" stroke-miterlimit="10"/>
<path d="M187.167 226.887C187.46 227.201 186.678 229.56 184.686 231.381C182.701 233.214 181.564 234.843 181.272 234.524C180.98 234.203 181.653 232.046 183.627 230.225C185.607 228.415 186.872 226.568 187.167 226.887Z" fill="white" stroke="white" stroke-width="0.4067" stroke-miterlimit="10"/>
<path d="M195.172 219.093C195.474 219.401 194.767 221.781 192.833 223.663C190.905 225.558 189.819 227.223 189.52 226.912C189.215 226.599 189.822 224.424 191.738 222.541C193.66 220.67 194.867 218.784 195.172 219.093Z" fill="white" stroke="white" stroke-width="0.4067" stroke-miterlimit="10"/>
<path d="M202.932 211.053C203.244 211.351 202.611 213.752 200.737 215.694C198.87 217.646 197.837 219.346 197.527 219.045C197.214 218.741 197.752 216.548 199.607 214.607C201.47 212.676 202.618 210.754 202.932 211.053Z" fill="white" stroke="white" stroke-width="0.4067" stroke-miterlimit="10"/>
<path d="M210.437 202.778C210.758 203.065 210.2 205.487 208.386 207.485C206.58 209.495 205.601 211.224 205.282 210.933C204.959 210.64 205.428 208.43 207.223 206.434C209.026 204.446 210.113 202.489 210.437 202.778Z" fill="white" stroke="white" stroke-width="0.4067" stroke-miterlimit="10"/>
<path d="M217.687 194.276C218.017 194.553 217.531 196.989 215.781 199.043C214.037 201.107 213.111 202.866 212.782 202.585C212.451 202.301 212.853 200.079 214.586 198.026C216.327 195.985 217.355 193.996 217.687 194.276Z" fill="white" stroke="white" stroke-width="0.4067" stroke-miterlimit="10"/>
<path d="M224.678 185.556C225.015 185.824 224.605 188.273 222.916 190.378C221.235 192.493 220.362 194.28 220.025 194.009C219.686 193.736 220.02 191.502 221.691 189.4C223.37 187.306 224.337 185.287 224.678 185.556Z" fill="white" stroke="white" stroke-width="0.4067" stroke-miterlimit="10"/>
<path d="M231.401 176.629C231.746 176.886 231.41 179.347 229.787 181.503C228.171 183.669 227.354 185.482 227.01 185.22C226.661 184.957 226.927 182.715 228.533 180.562C230.146 178.419 231.05 176.37 231.401 176.629Z" fill="white" stroke="white" stroke-width="0.4067" stroke-miterlimit="10"/>
<path d="M237.838 167.496C238.192 167.741 237.934 170.212 236.378 172.418C234.831 174.634 234.07 176.47 233.718 176.22C233.362 175.968 233.558 173.718 235.096 171.516C236.642 169.323 237.483 167.247 237.838 167.496Z" fill="white" stroke="white" stroke-width="0.4067" stroke-miterlimit="10"/>
<path d="M243.988 158.163C244.348 158.397 244.167 160.873 242.692 163.133C241.204 165.39 240.506 167.253 240.145 167.014C239.783 166.775 239.903 164.516 241.379 162.273C242.847 160.026 243.623 157.926 243.988 158.163Z" fill="white" stroke="white" stroke-width="0.4067" stroke-miterlimit="10"/>
<path d="M249.829 148.635C250.198 148.858 250.097 151.338 248.696 153.645C247.283 155.95 246.645 157.834 246.276 157.606C245.906 157.378 245.954 155.118 247.357 152.829C248.749 150.535 249.456 148.411 249.829 148.635Z" fill="white" stroke="white" stroke-width="0.4067" stroke-miterlimit="10"/>
<path d="M255.353 138.92C255.728 139.131 255.71 141.612 254.385 143.966C253.05 146.317 252.476 148.221 252.099 148.006C251.722 147.79 251.696 145.528 253.022 143.193C254.336 140.855 254.973 138.709 255.353 138.92Z" fill="white" stroke="white" stroke-width="0.4067" stroke-miterlimit="10"/>
<path d="M260.539 129.021C260.922 129.219 260.99 131.7 259.746 134.097C258.493 136.492 257.981 138.415 257.599 138.212C257.214 138.009 257.11 135.75 258.357 133.371C259.59 130.991 260.152 128.824 260.539 129.021Z" fill="white" stroke="white" stroke-width="0.4067" stroke-miterlimit="10"/>
<path d="M265.372 118.949C265.762 119.132 265.918 121.609 264.76 124.05C263.591 126.488 263.15 128.426 262.758 128.238C262.367 128.05 262.184 125.796 263.346 123.375C264.496 120.951 264.978 118.764 265.372 118.949Z" fill="white" stroke="white" stroke-width="0.4067" stroke-miterlimit="10"/>
<path d="M269.837 108.707C270.233 108.877 270.48 111.347 269.412 113.827C268.331 116.306 267.96 118.26 267.562 118.085C267.165 117.911 266.901 115.664 267.974 113.203C269.035 110.74 269.437 108.537 269.837 108.707Z" fill="white" stroke="white" stroke-width="0.4067" stroke-miterlimit="10"/>
<path d="M273.913 98.3055C274.314 98.4605 274.656 100.919 273.684 103.44C272.698 105.958 272.399 107.924 271.996 107.765C271.592 107.605 271.244 105.369 272.222 102.87C273.187 100.369 273.505 98.1505 273.913 98.3055Z" fill="white" stroke="white" stroke-width="0.4067" stroke-miterlimit="10"/>
<path d="M277.573 87.7532C277.981 87.8912 278.42 90.3332 277.548 92.8912C276.66 95.4472 276.439 97.4223 276.03 97.2803C275.619 97.1363 275.185 94.9173 276.065 92.3813C276.932 89.8433 277.162 87.6142 277.573 87.7532Z" fill="white" stroke="white" stroke-width="0.4067" stroke-miterlimit="10"/>
<path d="M280.801 77.0604C281.213 77.1814 281.755 79.6034 280.988 82.1954C280.206 84.7854 280.065 86.7683 279.65 86.6413C279.234 86.5153 278.711 84.3154 279.486 81.7454C280.247 79.1764 280.383 76.9394 280.801 77.0604Z" fill="white" stroke="white" stroke-width="0.4067" stroke-miterlimit="10"/>
<path d="M283.504 66.2435C283.92 66.3425 284.594 68.7324 283.96 71.3614C283.31 73.9954 283.246 75.9774 282.83 75.8714C282.405 75.7634 281.796 73.5885 282.437 70.9895C283.066 68.3875 283.079 66.1435 283.504 66.2435Z" fill="white" stroke="white" stroke-width="0.4067" stroke-miterlimit="10"/>
<path d="M285.777 55.3032C286.2 55.3882 286.935 57.7592 286.394 60.4022C285.846 63.0472 285.886 65.0382 285.461 64.9482C285.036 64.8602 284.313 62.7182 284.858 60.0862C285.397 57.4542 285.351 55.2172 285.777 55.3032Z" fill="white" stroke="white" stroke-width="0.4067" stroke-miterlimit="10"/>
<path d="M287.807 44.3017C288.231 44.3777 289.018 46.7327 288.535 49.3857C288.047 52.0417 288.134 54.0317 287.706 53.9517C287.279 53.8727 286.507 51.7467 286.994 49.1027C287.475 46.4607 287.38 44.2247 287.807 44.3017Z" fill="white" stroke="white" stroke-width="0.4067" stroke-miterlimit="10"/>
<path d="M289.396 34.3277C289.82 34.3937 290.667 36.7257 290.252 39.3917C289.824 42.0587 289.964 44.0437 289.535 43.9757C289.105 43.9077 288.278 41.8027 288.702 39.1467C289.116 36.4967 288.965 34.2597 289.396 34.3277Z" fill="white" stroke="white" stroke-width="0.4067" stroke-miterlimit="10"/>
<path d="M66.1404 306.888C66.2424 307.304 64.4204 308.99 61.7984 309.627C57.1514 310.752 56.7974 309.224 61.4284 308.103C64.0324 307.469 66.0364 306.463 66.1404 306.888Z" fill="white" stroke="white" stroke-width="0.4067" stroke-miterlimit="10"/>
<path d="M75.8179 304.056C75.9419 304.469 74.2069 306.244 71.6139 307.008C69.0149 307.757 67.2729 308.71 67.1549 308.294C67.0349 307.876 68.6009 306.243 71.1759 305.502C73.7429 304.743 75.6919 303.64 75.8179 304.056Z" fill="white" stroke="white" stroke-width="0.4067" stroke-miterlimit="10"/>
<path d="M86.5157 300.407C86.6587 300.812 85.0097 302.667 82.4567 303.554C79.8977 304.428 78.2037 305.467 78.0657 305.057C77.9257 304.643 79.4097 302.938 81.9467 302.072C84.4757 301.191 86.3697 299.997 86.5157 300.407Z" fill="white" stroke="white" stroke-width="0.4067" stroke-miterlimit="10"/>
<path d="M97.039 296.274C97.201 296.673 95.636 298.599 93.126 299.6C90.61 300.59 88.9649 301.706 88.8079 301.301C88.6499 300.897 90.054 299.123 92.548 298.141C95.037 297.149 96.876 295.871 97.039 296.274Z" fill="white" stroke="white" stroke-width="0.4067" stroke-miterlimit="10"/>
<path d="M107.382 291.69C107.56 292.083 106.077 294.072 103.614 295.179C101.142 296.277 99.5478 297.462 99.3738 297.065C99.1988 296.668 100.524 294.836 102.975 293.748C105.418 292.648 107.202 291.295 107.382 291.69Z" fill="white" stroke="white" stroke-width="0.4067" stroke-miterlimit="10"/>
<path d="M117.532 286.689C117.726 287.074 116.323 289.12 113.907 290.327C111.482 291.522 109.938 292.773 109.747 292.384C109.556 291.993 110.804 290.109 113.21 288.922C115.608 287.724 117.335 286.301 117.532 286.689Z" fill="white" stroke="white" stroke-width="0.4067" stroke-miterlimit="10"/>
<path d="M127.482 281.296C127.69 281.673 126.367 283.773 124 285.071C121.625 286.36 120.129 287.67 119.924 287.289C119.717 286.905 120.891 284.974 123.25 283.693C125.599 282.404 127.271 280.916 127.482 281.296Z" fill="white" stroke="white" stroke-width="0.4067" stroke-miterlimit="10"/>
<path d="M137.226 275.536C137.448 275.905 136.203 278.051 133.885 279.436C131.56 280.812 130.114 282.177 129.895 281.804C129.674 281.43 130.775 279.453 133.084 278.086C135.385 276.713 137.001 275.164 137.226 275.536Z" fill="white" stroke="white" stroke-width="0.4067" stroke-miterlimit="10"/>
<path d="M146.757 269.431C146.992 269.792 145.822 271.981 143.555 273.448C141.28 274.905 139.886 276.324 139.653 275.957C139.42 275.591 140.447 273.577 142.707 272.129C144.958 270.671 146.52 269.066 146.757 269.431Z" fill="white" stroke="white" stroke-width="0.4067" stroke-miterlimit="10"/>
<path d="M156.066 263.005C156.313 263.359 155.218 265.585 153.004 267.129C150.781 268.665 149.436 270.131 149.19 269.773C148.944 269.416 149.902 267.366 152.111 265.84C154.311 264.307 155.816 262.65 156.066 263.005Z" fill="white" stroke="white" stroke-width="0.4067" stroke-miterlimit="10"/>
<path d="M165.159 256.267C165.418 256.611 164.398 258.874 162.237 260.49C160.067 262.1 158.772 263.61 158.514 263.26C158.256 262.912 159.144 260.832 161.301 259.233C163.448 257.627 164.896 255.92 165.159 256.267Z" fill="white" stroke="white" stroke-width="0.4067" stroke-miterlimit="10"/>
<path d="M174.028 249.233C174.298 249.568 173.355 251.865 171.24 253.544C169.131 255.232 167.883 256.779 167.615 256.44C167.345 256.098 168.168 253.995 170.263 252.316C172.364 250.648 173.755 248.894 174.028 249.233Z" fill="white" stroke="white" stroke-width="0.4067" stroke-miterlimit="10"/>
<path d="M182.67 241.914C182.95 242.241 182.081 244.568 180.022 246.311C177.969 248.068 176.771 249.655 176.492 249.324C176.211 248.99 176.965 246.861 179.007 245.116C181.053 243.383 182.387 241.584 182.67 241.914Z" fill="white" stroke="white" stroke-width="0.4067" stroke-miterlimit="10"/>
<path d="M191.077 234.327C191.367 234.645 190.571 236.997 188.567 238.806C186.572 240.625 185.424 242.25 185.134 241.927C184.843 241.605 185.53 239.452 187.514 237.644C189.505 235.846 190.783 234.007 191.077 234.327Z" fill="white" stroke="white" stroke-width="0.4067" stroke-miterlimit="10"/>
<path d="M199.245 226.479C199.545 226.787 198.823 229.163 196.877 231.033C194.938 232.913 193.841 234.574 193.544 234.262C193.241 233.947 193.86 231.776 195.788 229.906C197.723 228.046 198.941 226.167 199.245 226.479Z" fill="white" stroke="white" stroke-width="0.4067" stroke-miterlimit="10"/>
<path d="M207.165 218.38C207.474 218.68 206.824 221.077 204.938 223.006C203.058 224.948 202.015 226.64 201.707 226.337C201.395 226.031 201.947 223.841 203.816 221.912C205.692 219.994 206.852 218.079 207.165 218.38Z" fill="white" stroke="white" stroke-width="0.4067" stroke-miterlimit="10"/>
<path d="M214.83 210.045C215.148 210.333 214.574 212.75 212.748 214.737C210.928 216.734 209.937 218.458 209.619 218.165C209.3 217.868 209.784 215.662 211.591 213.677C213.408 211.701 214.507 209.752 214.83 210.045Z" fill="white" stroke="white" stroke-width="0.4067" stroke-miterlimit="10"/>
<path d="M222.248 201.463C222.575 201.742 222.073 204.175 220.315 206.223C218.549 208.267 217.616 210.024 217.288 209.741C216.961 209.456 217.372 207.232 219.127 205.199C220.875 203.163 221.916 201.181 222.248 201.463Z" fill="white" stroke="white" stroke-width="0.4067" stroke-miterlimit="10"/>
<path d="M229.39 192.687C229.725 192.956 229.296 195.403 227.594 197.497C225.899 199.601 225.013 201.382 224.679 201.108C224.342 200.832 224.69 198.6 226.375 196.508C228.069 194.428 229.05 192.415 229.39 192.687Z" fill="white" stroke="white" stroke-width="0.4067" stroke-miterlimit="10"/>
<path d="M236.271 183.685C236.614 183.945 236.259 186.403 234.622 188.546C232.991 190.7 232.161 192.507 231.818 192.244C231.473 191.978 231.753 189.737 233.375 187.596C235.003 185.466 235.924 183.424 236.271 183.685Z" fill="white" stroke="white" stroke-width="0.4067" stroke-miterlimit="10"/>
<path d="M242.872 174.476C243.224 174.725 242.945 177.193 241.374 179.387C239.809 181.591 239.035 183.421 238.684 183.168C238.331 182.914 238.543 180.666 240.097 178.475C241.66 176.295 242.516 174.225 242.872 174.476Z" fill="white" stroke="white" stroke-width="0.4067" stroke-miterlimit="10"/>
<path d="M249.182 165.066C249.541 165.303 249.339 167.778 247.845 170.026C246.34 172.27 245.628 174.129 245.269 173.885C244.908 173.643 245.045 171.385 246.541 169.154C248.026 166.92 248.82 164.827 249.182 165.066Z" fill="white" stroke="white" stroke-width="0.4067" stroke-miterlimit="10"/>
<path d="M255.19 155.458C255.555 155.685 255.433 158.164 254.01 160.459C252.579 162.751 251.926 164.631 251.559 164.399C251.191 164.168 251.257 161.907 252.68 159.629C254.093 157.348 254.819 155.231 255.19 155.458Z" fill="white" stroke="white" stroke-width="0.4067" stroke-miterlimit="10"/>
<path d="M260.877 145.661C261.251 145.875 261.21 148.356 259.864 150.697C258.508 153.035 257.915 154.934 257.541 154.716C257.166 154.497 257.158 152.236 258.507 149.912C259.844 147.586 260.499 145.446 260.877 145.661Z" fill="white" stroke="white" stroke-width="0.4067" stroke-miterlimit="10"/>
<path d="M266.237 135.679C266.617 135.88 266.66 138.363 265.393 140.747C264.117 143.129 263.588 145.047 263.206 144.841C262.823 144.634 262.741 142.374 264.01 140.008C265.268 137.639 265.852 135.477 266.237 135.679Z" fill="white" stroke="white" stroke-width="0.4067" stroke-miterlimit="10"/>
<path d="M271.247 125.519C271.635 125.707 271.763 128.185 270.579 130.613C269.386 133.038 268.922 134.973 268.534 134.78C268.145 134.587 267.985 132.331 269.172 129.922C270.347 127.512 270.855 125.33 271.247 125.519Z" fill="white" stroke="white" stroke-width="0.4067" stroke-miterlimit="10"/>
<path d="M275.893 115.188C276.288 115.362 276.506 117.834 275.41 120.303C274.302 122.769 273.908 124.719 273.513 124.539C273.117 124.359 272.878 122.111 273.98 119.662C275.066 117.212 275.495 115.014 275.893 115.188Z" fill="white" stroke="white" stroke-width="0.4067" stroke-miterlimit="10"/>
<path d="M280.154 104.695C280.554 104.854 280.865 107.316 279.86 109.824C278.844 112.33 278.521 114.293 278.121 114.129C277.719 113.965 277.398 111.726 278.407 109.238C279.404 106.748 279.75 104.536 280.154 104.695Z" fill="white" stroke="white" stroke-width="0.4067" stroke-miterlimit="10"/>
<path d="M284.015 94.0476C284.42 94.1916 284.825 96.6396 283.918 99.1856C282.997 101.728 282.75 103.702 282.342 103.552C281.934 103.404 281.529 101.178 282.444 98.6537C283.344 96.1287 283.605 93.9036 284.015 94.0476Z" fill="white" stroke="white" stroke-width="0.4067" stroke-miterlimit="10"/>
<path d="M287.448 83.2562C287.859 83.3832 288.362 85.8132 287.556 88.3932C286.739 90.9702 286.568 92.9532 286.155 92.8202C285.742 92.6862 285.25 90.4802 286.061 87.9222C286.86 85.3612 287.033 83.1282 287.448 83.2562Z" fill="white" stroke="white" stroke-width="0.4067" stroke-miterlimit="10"/>
<path d="M290.427 72.337C290.84 72.445 291.457 74.855 290.75 77.463C290.044 80.075 289.952 82.061 289.536 81.945C289.115 81.83 288.535 79.644 289.236 77.053C289.938 74.468 290.003 72.225 290.427 72.337Z" fill="white" stroke="white" stroke-width="0.4067" stroke-miterlimit="10"/>
<path d="M292.946 61.3006C293.367 61.3936 294.068 63.7746 293.479 66.4096C292.879 69.0466 292.875 71.0356 292.454 70.9376C292.029 70.8396 291.353 68.6816 291.95 66.0646C292.534 63.4466 292.521 61.2076 292.946 61.3006Z" fill="white" stroke="white" stroke-width="0.4067" stroke-miterlimit="10"/>
<path d="M295.059 50.1718C295.483 50.2488 296.273 52.6018 295.783 55.2588C295.279 57.9158 295.349 59.9038 294.924 59.8218C294.496 59.7398 293.741 57.6088 294.241 54.9708C294.728 52.3328 294.632 50.0958 295.059 50.1718Z" fill="white" stroke="white" stroke-width="0.4067" stroke-miterlimit="10"/>
<path d="M296.557 40.0696C296.981 40.1316 297.861 42.4506 297.479 45.1246C297.083 47.7986 297.241 49.7796 296.812 49.7176C296.382 49.6546 295.535 47.5566 295.928 44.8996C296.307 42.2446 296.124 40.0086 296.557 40.0696Z" fill="white" stroke="white" stroke-width="0.4067" stroke-miterlimit="10"/>
<path d="M307.78 47.6406C307.674 48.4426 307.563 49.2446 307.449 50.0486" stroke="white" stroke-width="1.6211" stroke-linecap="round" stroke-linejoin="round"/>
<path d="M306.457 56.4082C297.309 110.49 269.597 166.145 227.557 214.392C182.561 266.034 126.534 302.667 71.1387 317.252" stroke="white" stroke-width="1.6211" stroke-linecap="round" stroke-linejoin="round" stroke-dasharray="4.83 6.44"/>
<path d="M68.0163 318.053C67.2293 318.248 66.4423 318.44 65.6553 318.626C65.7143 318.679 65.7713 318.73 65.8303 318.783" stroke="white" stroke-width="1.6211" stroke-linecap="round" stroke-linejoin="round"/>
</g>
<defs>
<filter id="filter0_d_615_68" x="0" y="0" width="371.273" height="371.557" filterUnits="userSpaceOnUse" color-interpolation-filters="sRGB">
<feFlood flood-opacity="0" result="BackgroundImageFix"/>
<feColorMatrix in="SourceAlpha" type="matrix" values="0 0 0 0 0 0 0 0 0 0 0 0 0 0 0 0 0 0 127 0" result="hardAlpha"/>
<feOffset dy="4"/>
<feGaussianBlur stdDeviation="2"/>
<feComposite in2="hardAlpha" operator="out"/>
<feColorMatrix type="matrix" values="0 0 0 0 0 0 0 0 0 0 0 0 0 0 0 0 0 0 0.25 0"/>
<feBlend mode="normal" in2="BackgroundImageFix" result="effect1_dropShadow_615_68"/>
<feBlend mode="normal" in="SourceGraphic" in2="effect1_dropShadow_615_68" result="shape"/>
</filter>
<radialGradient id="paint0_radial_615_68" cx="0" cy="0" r="1" gradientUnits="userSpaceOnUse" gradientTransform="translate(134.733 70.0347) rotate(-48.9341) scale(292.992 292.964)">
<stop stop-color="#ED1C24"/>
<stop offset="0.182" stop-color="#E31F26"/>
<stop offset="0.6893" stop-color="#CA252B"/>
<stop offset="1" stop-color="#C1272D"/>
</radialGradient>
<radialGradient id="paint1_radial_615_68" cx="0" cy="0" r="1" gradientUnits="userSpaceOnUse" gradientTransform="translate(193.783 189.39) scale(135.054 135.154)">
<stop stop-color="#ED1C24"/>
<stop offset="0.182" stop-color="#E31F26"/>
<stop offset="0.6893" stop-color="#CA252B"/>
<stop offset="1" stop-color="#C1272D"/>
</radialGradient>
</defs>
</svg>
